  0
SECTION
  2
BLOCKS
  0
ENDSEC
  0
SECTION
  2
ENTITIES
  0
LINE
  8
0
 10
-164.527
 20
-68.3225
 11
-163.241
 21
-74.783
  0
LINE
  8
0
 10
-163.241
 20
-74.783
 11
-161.956
 21
-81.2345
  0
LINE
  8
0
 10
-161.956
 20
-81.2345
 11
-161.918
 21
-81.2667
  0
LINE
  8
0
 10
-161.918
 20
-81.2667
 11
-161.88
 21
-81.299
  0
LINE
  8
0
 10
-161.88
 20
-81.299
 11
-161.88
 21
-81.299
  0
LINE
  8
0
 10
-161.88
 20
-81.299
 11
-155.374
 21
-86.8158
  0
LINE
  8
0
 10
-155.374
 20
-86.8158
 11
-148.746
 21
-92.4357
  0
LINE
  8
0
 10
-148.746
 20
-92.4357
 11
-148.706
 21
-92.4695
  0
LINE
  8
0
 10
-148.706
 20
-92.4695
 11
-144.382
 21
-94.0264
  0
LINE
  8
0
 10
-144.382
 20
-94.0264
 11
-141.189
 21
-95.1758
  0
LINE
  8
0
 10
-141.189
 20
-95.1758
 11
-136.202
 21
-100.142
  0
LINE
  8
0
 10
-136.202
 20
-100.142
 11
-129.331
 21
-106.983
  0
LINE
  8
0
 10
-129.331
 20
-106.983
 11
-129.299
 21
-107.015
  0
LINE
  8
0
 10
-129.299
 20
-107.015
 11
-129.262
 21
-107.052
  0
LINE
  8
0
 10
-129.262
 20
-107.052
 11
-122.978
 21
-107.094
  0
LINE
  8
0
 10
-122.978
 20
-107.094
 11
-117.438
 21
-107.131
  0
LINE
  8
0
 10
-117.438
 20
-107.131
 11
-116.73
 21
-106.782
  0
LINE
  8
0
 10
-116.73
 20
-106.782
 11
-115.581
 21
-106.216
  0
LINE
  8
0
 10
-115.581
 20
-106.216
 11
-115.55
 21
-106.174
  0
LINE
  8
0
 10
-115.55
 20
-106.174
 11
-115.55
 21
-106.174
  0
LINE
  8
0
 10
-115.55
 20
-106.174
 11
-113.137
 21
-102.852
  0
LINE
  8
0
 10
-113.137
 20
-102.852
 11
-107.039
 21
-94.4589
  0
LINE
  8
0
 10
-107.039
 20
-94.4589
 11
-107.039
 21
-94.4589
  0
LINE
  8
0
 10
-107.039
 20
-94.4589
 11
-107.003
 21
-94.4101
  0
LINE
  8
0
 10
-107.003
 20
-94.4101
 11
-107.003
 21
-94.4101
  0
LINE
  8
0
 10
-107.003
 20
-94.4101
 11
-107.892
 21
-90.9109
  0
LINE
  8
0
 10
-107.892
 20
-90.9109
 11
-108.239
 21
-89.5449
  0
LINE
  8
0
 10
-108.239
 20
-89.5449
 11
-108.239
 21
-89.5449
  0
LINE
  8
0
 10
-108.239
 20
-89.5449
 11
-106.106
 21
-87.1753
  0
LINE
  8
0
 10
-106.106
 20
-87.1753
 11
-99.306
 21
-79.6235
  0
LINE
  8
0
 10
-99.306
 20
-79.6235
 11
-88.4966
 21
-73.7359
  0
LINE
  8
0
 10
-88.4966
 20
-73.7359
 11
-85.3797
 21
-72.0382
  0
LINE
  8
0
 10
-85.3797
 20
-72.0382
 11
-84.3779
 21
-71.3551
  0
LINE
  8
0
 10
-84.3779
 20
-71.3551
 11
-84.3779
 21
-71.3551
  0
LINE
  8
0
 10
-84.3779
 20
-71.3551
 11
-84.1589
 21
-71.2058
  0
LINE
  8
0
 10
-84.1589
 20
-71.2058
 11
-83.8156
 21
-70.9568
  0
LINE
  8
0
 10
-83.8156
 20
-70.9568
 11
-81.3959
 21
-69.2017
  0
LINE
  8
0
 10
-81.3959
 20
-69.2017
 11
-79.9061
 21
-68.882
  0
LINE
  8
0
 10
-79.9061
 20
-68.882
 11
-71.3054
 21
-67.0366
  0
LINE
  8
0
 10
-71.3054
 20
-67.0366
 11
-70.5099
 21
-66.5525
  0
LINE
  8
0
 10
-70.5099
 20
-66.5525
 11
-66.672
 21
-64.2166
  0
LINE
  8
0
 10
-66.672
 20
-64.2166
 11
-64.935
 21
-64.2166
  0
LINE
  8
0
 10
-64.935
 20
-64.2166
 11
-64.9178
 21
-64.2166
  0
LINE
  8
0
 10
-64.9178
 20
-64.2166
 11
-57.6772
 21
-64.2166
  0
LINE
  8
0
 10
-57.6772
 20
-64.2166
 11
-50.8579
 21
-66.4736
  0
LINE
  8
0
 10
-50.8579
 20
-66.4736
 11
-49.1566
 21
-67.0366
  0
LINE
  8
0
 10
-49.1566
 20
-67.0366
 11
-44.705
 21
-69.8317
  0
LINE
  8
0
 10
-44.705
 20
-69.8317
 11
-30.0442
 21
-79.0366
  0
LINE
  8
0
 10
-30.0442
 20
-79.0366
 11
-30.0245
 21
-79.0366
  0
LINE
  8
0
 10
-30.0245
 20
-79.0366
 11
-27.1661
 21
-79.0366
  0
LINE
  8
0
 10
-27.1661
 20
-79.0366
 11
-19.5861
 21
-79.0366
  0
LINE
  8
0
 10
-19.5861
 20
-79.0366
 11
-19.5861
 21
-79.0366
  0
LINE
  8
0
 10
-19.5861
 20
-79.0366
 11
-19.1672
 21
-78.5864
  0
LINE
  8
0
 10
-19.1672
 20
-78.5864
 11
-17.9575
 21
-77.2866
  0
LINE
  8
0
 10
-17.9575
 20
-77.2866
 11
-17.6505
 21
-67.7477
  0
LINE
  8
0
 10
-17.6505
 20
-67.7477
 11
-17.2845
 21
-56.3805
  0
LINE
  8
0
 10
-17.2845
 20
-56.3805
 11
-12.3412
 21
-56.3805
  0
LINE
  8
0
 10
-12.3412
 20
-56.3805
 11
-11.723
 21
-56.0218
  0
LINE
  8
0
 10
-11.723
 20
-56.0218
 11
-10.7802
 21
-55.4747
  0
LINE
  8
0
 10
-10.7802
 20
-55.4747
 11
-4.72862
 21
-47.8586
  0
LINE
  8
0
 10
-4.72862
 20
-47.8586
 11
-3.10518
 21
-45.8154
  0
LINE
  8
0
 10
-3.10518
 20
-45.8154
 11
-3.10518
 21
-45.8154
  0
LINE
  8
0
 10
-3.10518
 20
-45.8154
 11
-3.10771
 21
-45.795
  0
LINE
  8
0
 10
-3.10771
 20
-45.795
 11
-3.11713
 21
-45.7188
  0
LINE
  8
0
 10
-3.11713
 20
-45.7188
 11
-3.11713
 21
-45.7188
  0
LINE
  8
0
 10
-3.11713
 20
-45.7188
 11
-3.54507
 21
-42.2601
  0
LINE
  8
0
 10
-3.54507
 20
-42.2601
 11
-4.51566
 21
-34.4153
  0
LINE
  8
0
 10
-4.51566
 20
-34.4153
 11
-4.51566
 21
-34.4153
  0
LINE
  8
0
 10
-4.51566
 20
-34.4153
 11
-5.10519
 21
-29.8637
  0
LINE
  8
0
 10
-5.10519
 20
-29.8637
 11
-5.24123
 21
-28.8134
  0
LINE
  8
0
 10
-5.24123
 20
-28.8134
 11
-5.26858
 21
-28.3949
  0
LINE
  8
0
 10
-5.26858
 20
-28.3949
 11
-5.77812
 21
-20.6
  0
LINE
  8
0
 10
-5.77812
 20
-20.6
 11
-5.77812
 21
-3.4
  0
LINE
  8
0
 10
-5.77812
 20
-3.4
 11
-5.26858
 21
4.39491
  0
LINE
  8
0
 10
-5.26858
 20
4.39491
 11
-5.24123
 21
4.8134
  0
LINE
  8
0
 10
-5.24123
 20
4.8134
 11
-5.10519
 21
5.86374
  0
LINE
  8
0
 10
-5.10519
 20
5.86374
 11
-4.51566
 21
10.4153
  0
LINE
  8
0
 10
-4.51566
 20
10.4153
 11
-4.51566
 21
10.4153
  0
LINE
  8
0
 10
-4.51566
 20
10.4153
 11
-4.31381
 21
12.0468
  0
LINE
  8
0
 10
-4.31381
 20
12.0468
 11
-3.89289
 21
12.5746
  0
LINE
  8
0
 10
-3.89289
 20
12.5746
 11
-3.87116
 21
12.6018
  0
LINE
  8
0
 10
-3.87116
 20
12.6018
 11
-3.8634
 21
12.6358
  0
LINE
  8
0
 10
-3.8634
 20
12.6358
 11
-3.44998
 21
14.4471
  0
LINE
  8
0
 10
-3.44998
 20
14.4471
 11
-3.81756
 21
16.0576
  0
LINE
  8
0
 10
-3.81756
 20
16.0576
 11
-3.54507
 21
18.2601
  0
LINE
  8
0
 10
-3.54507
 20
18.2601
 11
-3.11713
 21
21.7188
  0
LINE
  8
0
 10
-3.11713
 20
21.7188
 11
-3.11713
 21
21.7188
  0
LINE
  8
0
 10
-3.11713
 20
21.7188
 11
-2.79862
 21
23.3841
  0
LINE
  8
0
 10
-2.79862
 20
23.3841
 11
-1.60131
 21
29.6441
  0
LINE
  8
0
 10
-1.60131
 20
29.6441
 11
-1.60131
 21
29.6441
  0
LINE
  8
0
 10
-1.60131
 20
29.6441
 11
0.124689
 21
36.1185
  0
LINE
  8
0
 10
0.124689
 20
36.1185
 11
2.39281
 21
44.6264
  0
LINE
  8
0
 10
2.39281
 20
44.6264
 11
-1.333
 21
49.544
  0
LINE
  8
0
 10
-1.333
 20
49.544
 11
-1.33316
 21
49.5442
  0
LINE
  8
0
 10
-1.33316
 20
49.5442
 11
-4.16855
 21
53.2866
  0
LINE
  8
0
 10
-4.16855
 20
53.2866
 11
-5.1322
 21
54.4915
  0
LINE
  8
0
 10
-5.1322
 20
54.4915
 11
-5.56815
 21
55.0366
  0
LINE
  8
0
 10
-5.56815
 20
55.0366
 11
-5.56815
 21
55.0366
  0
LINE
  8
0
 10
-5.56815
 20
55.0366
 11
-15.7597
 21
55.0366
  0
LINE
  8
0
 10
-15.7597
 20
55.0366
 11
-20.9784
 21
55.0366
  0
LINE
  8
0
 10
-20.9784
 20
55.0366
 11
-23.0912
 21
55.0366
  0
LINE
  8
0
 10
-23.0912
 20
55.0366
 11
-23.1159
 21
55.0366
  0
LINE
  8
0
 10
-23.1159
 20
55.0366
 11
-23.8658
 21
55.0366
  0
LINE
  8
0
 10
-23.8658
 20
55.0366
 11
-34.715
 21
55.0366
  0
LINE
  8
0
 10
-34.715
 20
55.0366
 11
-34.7417
 21
55.0366
  0
LINE
  8
0
 10
-34.7417
 20
55.0366
 11
-37.447
 21
55.0366
  0
LINE
  8
0
 10
-37.447
 20
55.0366
 11
-37.7533
 21
55.8228
  0
LINE
  8
0
 10
-37.7533
 20
55.8228
 11
-37.7534
 21
55.823
  0
LINE
  8
0
 10
-37.7534
 20
55.823
 11
-41.4406
 21
65.2866
  0
LINE
  8
0
 10
-41.4406
 20
65.2866
 11
-42.8958
 21
66.6667
  0
LINE
  8
0
 10
-42.8958
 20
66.6667
 11
-42.8958
 21
66.6668
  0
LINE
  8
0
 10
-42.8958
 20
66.6668
 11
-43.2858
 21
67.0366
  0
LINE
  8
0
 10
-43.2858
 20
67.0366
 11
-43.2858
 21
67.0366
  0
LINE
  8
0
 10
-43.2858
 20
67.0366
 11
-47.1456
 21
67.0366
  0
LINE
  8
0
 10
-47.1456
 20
67.0366
 11
-47.2208
 21
67.3659
  0
LINE
  8
0
 10
-47.2208
 20
67.3659
 11
-47.2285
 21
67.3999
  0
LINE
  8
0
 10
-47.2285
 20
67.3999
 11
-47.2502
 21
67.4272
  0
LINE
  8
0
 10
-47.2502
 20
67.4272
 11
-48.4086
 21
68.8797
  0
LINE
  8
0
 10
-48.4086
 20
68.8797
 11
-50.0826
 21
69.6859
  0
LINE
  8
0
 10
-50.0826
 20
69.6859
 11
-50.114
 21
69.701
  0
LINE
  8
0
 10
-50.114
 20
69.701
 11
-52.0067
 21
69.701
  0
LINE
  8
0
 10
-52.0067
 20
69.701
 11
-52.0381
 21
69.6859
  0
LINE
  8
0
 10
-52.0381
 20
69.6859
 11
-53.7121
 21
68.8797
  0
LINE
  8
0
 10
-53.7121
 20
68.8797
 11
-54.8705
 21
67.4272
  0
LINE
  8
0
 10
-54.8705
 20
67.4272
 11
-54.8922
 21
67.3999
  0
LINE
  8
0
 10
-54.8922
 20
67.3999
 11
-54.8999
 21
67.3659
  0
LINE
  8
0
 10
-54.8999
 20
67.3659
 11
-54.9751
 21
67.0366
  0
LINE
  8
0
 10
-54.9751
 20
67.0366
 11
-57.0108
 21
67.0366
  0
LINE
  8
0
 10
-57.0108
 20
67.0366
 11
-60.5169
 21
69.3472
  0
LINE
  8
0
 10
-60.5169
 20
69.3472
 11
-60.5169
 21
69.3473
  0
LINE
  8
0
 10
-60.5169
 20
69.3473
 11
-61.2898
 21
69.8566
  0
LINE
  8
0
 10
-61.2898
 20
69.8566
 11
-74.1184
 21
69.8566
  0
LINE
  8
0
 10
-74.1184
 20
69.8566
 11
-74.147
 21
69.7834
  0
LINE
  8
0
 10
-74.147
 20
69.7834
 11
-74.7187
 21
68.3178
  0
LINE
  8
0
 10
-74.7187
 20
68.3178
 11
-74.8226
 21
68.0515
  0
LINE
  8
0
 10
-74.8226
 20
68.0515
 11
-74.8278
 21
68.038
  0
LINE
  8
0
 10
-74.8278
 20
68.038
 11
-74.9264
 21
67.6394
  0
LINE
  8
0
 10
-74.9264
 20
67.6394
 11
-75.0754
 21
67.0366
  0
LINE
  8
0
 10
-75.0754
 20
67.0366
 11
-84.7918
 21
67.0366
  0
LINE
  8
0
 10
-84.7918
 20
67.0366
 11
-84.8029
 21
67.0366
  0
LINE
  8
0
 10
-84.8029
 20
67.0366
 11
-86.4306
 21
67.0366
  0
LINE
  8
0
 10
-86.4306
 20
67.0366
 11
-88.3157
 21
67.0366
  0
LINE
  8
0
 10
-88.3157
 20
67.0366
 11
-88.3239
 21
67.0366
  0
LINE
  8
0
 10
-88.3239
 20
67.0366
 11
-88.5714
 21
67.0366
  0
LINE
  8
0
 10
-88.5714
 20
67.0366
 11
-97.8859
 21
67.0366
  0
LINE
  8
0
 10
-97.8859
 20
67.0366
 11
-99.11
 21
67.0366
  0
LINE
  8
0
 10
-99.11
 20
67.0366
 11
-99.5737
 21
66.3664
  0
LINE
  8
0
 10
-99.5737
 20
66.3664
 11
-103.164
 21
61.1764
  0
LINE
  8
0
 10
-103.164
 20
61.1764
 11
-113.164
 21
51.1764
  0
LINE
  8
0
 10
-113.164
 20
51.1764
 11
-114.004
 21
49.3429
  0
LINE
  8
0
 10
-114.004
 20
49.3429
 11
-114.898
 21
47.3912
  0
LINE
  8
0
 10
-114.898
 20
47.3912
 11
-115.588
 21
47.7232
  0
LINE
  8
0
 10
-115.588
 20
47.7232
 11
-115.619
 21
47.7384
  0
LINE
  8
0
 10
-115.619
 20
47.7384
 11
-117.512
 21
47.7384
  0
LINE
  8
0
 10
-117.512
 20
47.7384
 11
-117.543
 21
47.7232
  0
LINE
  8
0
 10
-117.543
 20
47.7232
 11
-119.217
 21
46.9171
  0
LINE
  8
0
 10
-119.217
 20
46.9171
 11
-120.376
 21
45.4645
  0
LINE
  8
0
 10
-120.376
 20
45.4645
 11
-120.397
 21
45.4373
  0
LINE
  8
0
 10
-120.397
 20
45.4373
 11
-120.405
 21
45.4033
  0
LINE
  8
0
 10
-120.405
 20
45.4033
 11
-120.818
 21
43.592
  0
LINE
  8
0
 10
-120.818
 20
43.592
 11
-120.405
 21
41.7806
  0
LINE
  8
0
 10
-120.405
 20
41.7806
 11
-120.397
 21
41.7467
  0
LINE
  8
0
 10
-120.397
 20
41.7467
 11
-120.376
 21
41.7194
  0
LINE
  8
0
 10
-120.376
 20
41.7194
 11
-119.217
 21
40.2668
  0
LINE
  8
0
 10
-119.217
 20
40.2668
 11
-118.352
 21
39.8503
  0
LINE
  8
0
 10
-118.352
 20
39.8503
 11
-120.067
 21
36.1075
  0
LINE
  8
0
 10
-120.067
 20
36.1075
 11
-121.535
 21
31.6376
  0
LINE
  8
0
 10
-121.535
 20
31.6376
 11
-121.739
 21
31.0184
  0
LINE
  8
0
 10
-121.739
 20
31.0184
 11
-124.87
 21
16.2884
  0
LINE
  8
0
 10
-124.87
 20
16.2884
 11
-125.312
 21
14.2113
  0
LINE
  8
0
 10
-125.312
 20
14.2113
 11
-125.809
 21
9.44836
  0
LINE
  8
0
 10
-125.809
 20
9.44836
 11
-125.882
 21
8.75
  0
LINE
  8
0
 10
-125.882
 20
8.75
 11
-125.882
 21
-8.75
  0
LINE
  8
0
 10
-125.882
 20
-8.75
 11
-125.809
 21
-9.44836
  0
LINE
  8
0
 10
-125.809
 20
-9.44836
 11
-125.312
 21
-14.2113
  0
LINE
  8
0
 10
-125.312
 20
-14.2113
 11
-124.87
 21
-16.2884
  0
LINE
  8
0
 10
-124.87
 20
-16.2884
 11
-122.536
 21
-27.267
  0
LINE
  8
0
 10
-122.536
 20
-27.267
 11
-123.89
 21
-27.9188
  0
LINE
  8
0
 10
-123.89
 20
-27.9188
 11
-125.048
 21
-29.3714
  0
LINE
  8
0
 10
-125.048
 20
-29.3714
 11
-125.07
 21
-29.3986
  0
LINE
  8
0
 10
-125.07
 20
-29.3986
 11
-125.078
 21
-29.4326
  0
LINE
  8
0
 10
-125.078
 20
-29.4326
 11
-125.491
 21
-31.2439
  0
LINE
  8
0
 10
-125.491
 20
-31.2439
 11
-125.35
 21
-31.8605
  0
LINE
  8
0
 10
-125.35
 20
-31.8605
 11
-127.902
 21
-32.5262
  0
LINE
  8
0
 10
-127.902
 20
-32.5262
 11
-127.903
 21
-32.5263
  0
LINE
  8
0
 10
-127.903
 20
-32.5263
 11
-149.049
 21
-38.0425
  0
LINE
  8
0
 10
-149.049
 20
-38.0425
 11
-149.098
 21
-38.0838
  0
LINE
  8
0
 10
-149.098
 20
-38.0838
 11
-156.081
 21
-43.943
  0
LINE
  8
0
 10
-156.081
 20
-43.943
 11
-156.081
 21
-43.9431
  0
LINE
  8
0
 10
-156.081
 20
-43.9431
 11
-158.148
 21
-45.6776
  0
LINE
  8
0
 10
-158.148
 20
-45.6776
 11
-158.148
 21
-45.6776
  0
LINE
  8
0
 10
-158.148
 20
-45.6776
 11
-158.194
 21
-45.7162
  0
LINE
  8
0
 10
-158.194
 20
-45.7162
 11
-159.104
 21
-46.8261
  0
LINE
  8
0
 10
-159.104
 20
-46.8261
 11
-159.104
 21
-46.8262
  0
LINE
  8
0
 10
-159.104
 20
-46.8262
 11
-159.45
 21
-47.2476
  0
LINE
  8
0
 10
-159.45
 20
-47.2476
 11
-159.45
 21
-47.2476
  0
LINE
  8
0
 10
-159.45
 20
-47.2476
 11
-158.405
 21
-50.0846
  0
LINE
  8
0
 10
-158.405
 20
-50.0846
 11
-155.802
 21
-57.1554
  0
LINE
  8
0
 10
-155.802
 20
-57.1554
 11
-155.802
 21
-57.1554
  0
LINE
  8
0
 10
-155.802
 20
-57.1554
 11
-162.019
 21
-65.1117
  0
LINE
  8
0
 10
-162.019
 20
-65.1117
 11
-162.019
 21
-65.1119
  0
LINE
  8
0
 10
-162.019
 20
-65.1119
 11
-164.507
 21
-68.2969
  0
LINE
  8
0
 10
-164.507
 20
-68.2969
 11
-164.527
 21
-68.3225
  0
LINE
  8
0
 10
-164.527
 20
-68.3225
 11
-164.527
 21
-68.3225
  0
LINE
  8
0
 10
-161.452
 20
-68.1862
 11
-158.76
 21
-64.7396
  0
LINE
  8
0
 10
-158.76
 20
-64.7396
 11
-158.759
 21
-64.7393
  0
LINE
  8
0
 10
-158.759
 20
-64.7393
 11
-152.778
 21
-57.0836
  0
LINE
  8
0
 10
-152.778
 20
-57.0836
 11
-152.762
 21
-57.0636
  0
LINE
  8
0
 10
-152.762
 20
-57.0636
 11
-152.728
 21
-57.019
  0
LINE
  8
0
 10
-152.728
 20
-57.019
 11
-152.728
 21
-57.019
  0
LINE
  8
0
 10
-152.728
 20
-57.019
 11
-153.823
 21
-54.303
  0
LINE
  8
0
 10
-153.823
 20
-54.303
 11
-156.55
 21
-47.5407
  0
LINE
  8
0
 10
-156.55
 20
-47.5407
 11
-150.909
 21
-42.8076
  0
LINE
  8
0
 10
-150.909
 20
-42.8076
 11
-150.909
 21
-42.8075
  0
LINE
  8
0
 10
-150.909
 20
-42.8075
 11
-148.55
 21
-40.8285
  0
LINE
  8
0
 10
-148.55
 20
-40.8285
 11
-125.756
 21
-33.0941
  0
LINE
  8
0
 10
-125.756
 20
-33.0941
 11
-125.756
 21
-33.094
  0
LINE
  8
0
 10
-125.756
 20
-33.094
 11
-125.118
 21
-32.8776
  0
LINE
  8
0
 10
-125.118
 20
-32.8776
 11
-125.078
 21
-33.0553
  0
LINE
  8
0
 10
-125.078
 20
-33.0553
 11
-125.07
 21
-33.0892
  0
LINE
  8
0
 10
-125.07
 20
-33.0892
 11
-125.048
 21
-33.1165
  0
LINE
  8
0
 10
-125.048
 20
-33.1165
 11
-123.89
 21
-34.5691
  0
LINE
  8
0
 10
-123.89
 20
-34.5691
 11
-122.216
 21
-35.3752
  0
LINE
  8
0
 10
-122.216
 20
-35.3752
 11
-122.184
 21
-35.3903
  0
LINE
  8
0
 10
-122.184
 20
-35.3903
 11
-120.292
 21
-35.3903
  0
LINE
  8
0
 10
-120.292
 20
-35.3903
 11
-120.26
 21
-35.3752
  0
LINE
  8
0
 10
-120.26
 20
-35.3752
 11
-118.586
 21
-34.5691
  0
LINE
  8
0
 10
-118.586
 20
-34.5691
 11
-117.428
 21
-33.1165
  0
LINE
  8
0
 10
-117.428
 20
-33.1165
 11
-117.406
 21
-33.0892
  0
LINE
  8
0
 10
-117.406
 20
-33.0892
 11
-117.398
 21
-33.0553
  0
LINE
  8
0
 10
-117.398
 20
-33.0553
 11
-116.985
 21
-31.2439
  0
LINE
  8
0
 10
-116.985
 20
-31.2439
 11
-117.398
 21
-29.4326
  0
LINE
  8
0
 10
-117.398
 20
-29.4326
 11
-117.406
 21
-29.3986
  0
LINE
  8
0
 10
-117.406
 20
-29.3986
 11
-117.428
 21
-29.3714
  0
LINE
  8
0
 10
-117.428
 20
-29.3714
 11
-118.586
 21
-27.9188
  0
LINE
  8
0
 10
-118.586
 20
-27.9188
 11
-120.26
 21
-27.1127
  0
LINE
  8
0
 10
-120.26
 20
-27.1127
 11
-120.292
 21
-27.0975
  0
LINE
  8
0
 10
-120.292
 20
-27.0975
 11
-120.451
 21
-27.0975
  0
LINE
  8
0
 10
-120.451
 20
-27.0975
 11
-123.212
 21
-14.1113
  0
LINE
  8
0
 10
-123.212
 20
-14.1113
 11
-123.282
 21
-13.4391
  0
LINE
  8
0
 10
-123.282
 20
-13.4391
 11
-123.782
 21
-8.64999
  0
LINE
  8
0
 10
-123.782
 20
-8.64999
 11
-123.782
 21
8.64999
  0
LINE
  8
0
 10
-123.782
 20
8.64999
 11
-123.282
 21
13.4391
  0
LINE
  8
0
 10
-123.282
 20
13.4391
 11
-123.212
 21
14.1113
  0
LINE
  8
0
 10
-123.212
 20
14.1113
 11
-120.076
 21
28.8606
  0
LINE
  8
0
 10
-120.076
 20
28.8606
 11
-119.639
 21
30.9184
  0
LINE
  8
0
 10
-119.639
 20
30.9184
 11
-118.165
 21
35.4045
  0
LINE
  8
0
 10
-118.165
 20
35.4045
 11
-117.967
 21
36.0075
  0
LINE
  8
0
 10
-117.967
 20
36.0075
 11
-117.207
 21
37.6652
  0
LINE
  8
0
 10
-117.207
 20
37.6652
 11
-116.392
 21
39.4456
  0
LINE
  8
0
 10
-116.392
 20
39.4456
 11
-115.619
 21
39.4456
  0
LINE
  8
0
 10
-115.619
 20
39.4456
 11
-115.588
 21
39.4607
  0
LINE
  8
0
 10
-115.588
 20
39.4607
 11
-113.914
 21
40.2668
  0
LINE
  8
0
 10
-113.914
 20
40.2668
 11
-112.755
 21
41.7194
  0
LINE
  8
0
 10
-112.755
 20
41.7194
 11
-112.734
 21
41.7467
  0
LINE
  8
0
 10
-112.734
 20
41.7467
 11
-112.726
 21
41.7806
  0
LINE
  8
0
 10
-112.726
 20
41.7806
 11
-112.312
 21
43.592
  0
LINE
  8
0
 10
-112.312
 20
43.592
 11
-112.726
 21
45.4033
  0
LINE
  8
0
 10
-112.726
 20
45.4033
 11
-112.734
 21
45.4373
  0
LINE
  8
0
 10
-112.734
 20
45.4373
 11
-112.755
 21
45.4645
  0
LINE
  8
0
 10
-112.755
 20
45.4645
 11
-113.314
 21
46.165
  0
LINE
  8
0
 10
-113.314
 20
46.165
 11
-111.064
 21
51.0764
  0
LINE
  8
0
 10
-111.064
 20
51.0764
 11
-103.064
 21
59.0764
  0
LINE
  8
0
 10
-103.064
 20
59.0764
 11
-102.513
 21
59.5098
  0
LINE
  8
0
 10
-102.513
 20
59.5098
 11
-97.4774
 21
63.468
  0
LINE
  8
0
 10
-97.4774
 20
63.468
 11
-87.9904
 21
63.468
  0
LINE
  8
0
 10
-87.9904
 20
63.468
 11
-86.9528
 21
63.468
  0
LINE
  8
0
 10
-86.9528
 20
63.468
 11
-85.1492
 21
63.468
  0
LINE
  8
0
 10
-85.1492
 20
63.468
 11
-84.9177
 21
63.468
  0
LINE
  8
0
 10
-84.9177
 20
63.468
 11
-74.599
 21
63.468
  0
LINE
  8
0
 10
-74.599
 20
63.468
 11
-73.2227
 21
63.468
  0
LINE
  8
0
 10
-73.2227
 20
63.468
 11
-73.1909
 21
63.5427
  0
LINE
  8
0
 10
-73.1909
 20
63.5427
 11
-73.0904
 21
63.7788
  0
LINE
  8
0
 10
-73.0904
 20
63.7788
 11
-72.4855
 21
65.2
  0
LINE
  8
0
 10
-72.4855
 20
65.2
 11
-72.4804
 21
65.2118
  0
LINE
  8
0
 10
-72.4804
 20
65.2118
 11
-72.4486
 21
65.2866
  0
LINE
  8
0
 10
-72.4486
 20
65.2866
 11
-72.3813
 21
65.7066
  0
LINE
  8
0
 10
-72.3813
 20
65.7066
 11
-72.2882
 21
66.288
  0
LINE
  8
0
 10
-72.2882
 20
66.288
 11
-61.882
 21
66.288
  0
LINE
  8
0
 10
-61.882
 20
66.288
 11
-60.0251
 21
66.288
  0
LINE
  8
0
 10
-60.0251
 20
66.288
 11
-59.2984
 21
65.7931
  0
LINE
  8
0
 10
-59.2984
 20
65.7931
 11
-59.2983
 21
65.793
  0
LINE
  8
0
 10
-59.2983
 20
65.793
 11
-55.8841
 21
63.468
  0
LINE
  8
0
 10
-55.8841
 20
63.468
 11
-55.8841
 21
63.468
  0
LINE
  8
0
 10
-55.8841
 20
63.468
 11
-54.6998
 21
63.468
  0
LINE
  8
0
 10
-54.6998
 20
63.468
 11
-53.7121
 21
62.2294
  0
LINE
  8
0
 10
-53.7121
 20
62.2294
 11
-52.0381
 21
61.4233
  0
LINE
  8
0
 10
-52.0381
 20
61.4233
 11
-52.0067
 21
61.4082
  0
LINE
  8
0
 10
-52.0067
 20
61.4082
 11
-50.114
 21
61.4082
  0
LINE
  8
0
 10
-50.114
 20
61.4082
 11
-50.0826
 21
61.4233
  0
LINE
  8
0
 10
-50.0826
 20
61.4233
 11
-48.4086
 21
62.2294
  0
LINE
  8
0
 10
-48.4086
 20
62.2294
 11
-47.4209
 21
63.468
  0
LINE
  8
0
 10
-47.4209
 20
63.468
 11
-44.5025
 21
63.468
  0
LINE
  8
0
 10
-44.5025
 20
63.468
 11
-43.2807
 21
63.468
  0
LINE
  8
0
 10
-43.2807
 20
63.468
 11
-42.957
 21
62.6851
  0
LINE
  8
0
 10
-42.957
 20
62.6851
 11
-39.0423
 21
53.218
  0
LINE
  8
0
 10
-39.0423
 20
53.218
 11
-37.7574
 21
51.8374
  0
LINE
  8
0
 10
-37.7574
 20
51.8374
 11
-37.4137
 21
51.468
  0
LINE
  8
0
 10
-37.4137
 20
51.468
 11
-37.4137
 21
51.468
  0
LINE
  8
0
 10
-37.4137
 20
51.468
 11
-25.6789
 21
51.468
  0
LINE
  8
0
 10
-25.6789
 20
51.468
 11
-22.7594
 21
51.468
  0
LINE
  8
0
 10
-22.7594
 20
51.468
 11
-20.6925
 21
51.468
  0
LINE
  8
0
 10
-20.6925
 20
51.468
 11
-20.0191
 21
51.468
  0
LINE
  8
0
 10
-20.0191
 20
51.468
 11
-8.59685
 21
51.468
  0
LINE
  8
0
 10
-8.59685
 20
51.468
 11
-4.81582
 21
51.468
  0
LINE
  8
0
 10
-4.81582
 20
51.468
 11
-3.68814
 21
49.9796
  0
LINE
  8
0
 10
-3.68814
 20
49.9796
 11
-0.892599
 21
46.2898
  0
LINE
  8
0
 10
-0.892599
 20
46.2898
 11
-3.78114
 21
35.4547
  0
LINE
  8
0
 10
-3.78114
 20
35.4547
 11
-4.88037
 21
31.3314
  0
LINE
  8
0
 10
-4.88037
 20
31.3314
 11
-4.88673
 21
31.3075
  0
LINE
  8
0
 10
-4.88673
 20
31.3075
 11
-6.4253
 21
23.2632
  0
LINE
  8
0
 10
-6.4253
 20
23.2632
 11
-6.52896
 21
22.7213
  0
LINE
  8
0
 10
-6.52896
 20
22.7213
 11
-6.52971
 21
22.7152
  0
LINE
  8
0
 10
-6.52971
 20
22.7152
 11
-6.54091
 21
22.6247
  0
LINE
  8
0
 10
-6.54091
 20
22.6247
 11
-6.54091
 21
22.6247
  0
LINE
  8
0
 10
-6.54091
 20
22.6247
 11
-6.54091
 21
22.6247
  0
LINE
  8
0
 10
-6.54091
 20
22.6247
 11
-6.88316
 21
19.8584
  0
LINE
  8
0
 10
-6.88316
 20
19.8584
 11
-7.03838
 21
18.5935
  0
LINE
  8
0
 10
-7.03838
 20
18.5935
 11
-8.64938
 21
18.5935
  0
LINE
  8
0
 10
-8.64938
 20
18.5935
 11
-8.68078
 21
18.5784
  0
LINE
  8
0
 10
-8.68078
 20
18.5784
 11
-10.3547
 21
17.7723
  0
LINE
  8
0
 10
-10.3547
 20
17.7723
 11
-11.5131
 21
16.3197
  0
LINE
  8
0
 10
-11.5131
 20
16.3197
 11
-11.5348
 21
16.2925
  0
LINE
  8
0
 10
-11.5348
 20
16.2925
 11
-11.5426
 21
16.2585
  0
LINE
  8
0
 10
-11.5426
 20
16.2585
 11
-11.956
 21
14.4471
  0
LINE
  8
0
 10
-11.956
 20
14.4471
 11
-11.5426
 21
12.6358
  0
LINE
  8
0
 10
-11.5426
 20
12.6358
 11
-11.5348
 21
12.6018
  0
LINE
  8
0
 10
-11.5348
 20
12.6018
 11
-11.5131
 21
12.5746
  0
LINE
  8
0
 10
-11.5131
 20
12.5746
 11
-10.3547
 21
11.122
  0
LINE
  8
0
 10
-10.3547
 20
11.122
 11
-8.68078
 21
10.3159
  0
LINE
  8
0
 10
-8.68078
 20
10.3159
 11
-8.64938
 21
10.3008
  0
LINE
  8
0
 10
-8.64938
 20
10.3008
 11
-8.05601
 21
10.3008
  0
LINE
  8
0
 10
-8.05601
 20
10.3008
 11
-8.34001
 21
7.98633
  0
LINE
  8
0
 10
-8.34001
 20
7.98633
 11
-8.68972
 21
5.13655
  0
LINE
  8
0
 10
-8.68972
 20
5.13655
 11
-8.76036
 21
3.99638
  0
LINE
  8
0
 10
-8.76036
 20
3.99638
 11
-9.21242
 21
-3.3
  0
LINE
  8
0
 10
-9.21242
 20
-3.3
 11
-9.21242
 21
-20.7
  0
LINE
  8
0
 10
-9.21242
 20
-20.7
 11
-8.76036
 21
-27.9964
  0
LINE
  8
0
 10
-8.76036
 20
-27.9964
 11
-8.68972
 21
-29.1365
  0
LINE
  8
0
 10
-8.68972
 20
-29.1365
 11
-8.34001
 21
-31.9863
  0
LINE
  8
0
 10
-8.34001
 20
-31.9863
 11
-6.88316
 21
-43.8584
  0
LINE
  8
0
 10
-6.88316
 20
-43.8584
 11
-6.54091
 21
-46.6247
  0
LINE
  8
0
 10
-6.54091
 20
-46.6247
 11
-6.54091
 21
-46.6247
  0
LINE
  8
0
 10
-6.54091
 20
-46.6247
 11
-10.3481
 21
-51.4162
  0
LINE
  8
0
 10
-10.3481
 20
-51.4162
 11
-10.3482
 21
-51.4164
  0
LINE
  8
0
 10
-10.3482
 20
-51.4164
 11
-11.9611
 21
-53.4462
  0
LINE
  8
0
 10
-11.9611
 20
-53.4462
 11
-16.746
 21
-53.4462
  0
LINE
  8
0
 10
-16.746
 20
-53.4462
 11
-26.4652
 21
-53.4462
  0
LINE
  8
0
 10
-26.4652
 20
-53.4462
 11
-27.1146
 21
-53.8231
  0
LINE
  8
0
 10
-27.1146
 20
-53.8231
 11
-28.0262
 21
-54.3521
  0
LINE
  8
0
 10
-28.0262
 20
-54.3521
 11
-28.0262
 21
-54.3521
  0
LINE
  8
0
 10
-28.0262
 20
-54.3521
 11
-28.0192
 21
-54.4085
  0
LINE
  8
0
 10
-28.0192
 20
-54.4085
 11
-27.8797
 21
-55.5366
  0
LINE
  8
0
 10
-27.8797
 20
-55.5366
 11
-27.7801
 21
-56.3411
  0
LINE
  8
0
 10
-27.7801
 20
-56.3411
 11
-27.7752
 21
-56.3805
  0
LINE
  8
0
 10
-27.7752
 20
-56.3805
 11
-27.739
 21
-56.3805
  0
LINE
  8
0
 10
-27.739
 20
-56.3805
 11
-20.9432
 21
-56.3805
  0
LINE
  8
0
 10
-20.9432
 20
-56.3805
 11
-21.0055
 21
-65.9974
  0
LINE
  8
0
 10
-21.0055
 20
-65.9974
 11
-21.0667
 21
-75.468
  0
LINE
  8
0
 10
-21.0667
 20
-75.468
 11
-21.8405
 21
-75.468
  0
LINE
  8
0
 10
-21.8405
 20
-75.468
 11
-30.5822
 21
-75.468
  0
LINE
  8
0
 10
-30.5822
 20
-75.468
 11
-34.2054
 21
-73.1646
  0
LINE
  8
0
 10
-34.2054
 20
-73.1646
 11
-49.458
 21
-63.468
  0
LINE
  8
0
 10
-49.458
 20
-63.468
 11
-55.5542
 21
-61.1893
  0
LINE
  8
0
 10
-55.5542
 20
-61.1893
 11
-57.0023
 21
-60.648
  0
LINE
  8
0
 10
-57.0023
 20
-60.648
 11
-57.0164
 21
-60.648
  0
LINE
  8
0
 10
-57.0164
 20
-60.648
 11
-58.6193
 21
-60.648
  0
LINE
  8
0
 10
-58.6193
 20
-60.648
 11
-66.8818
 21
-60.648
  0
LINE
  8
0
 10
-66.8818
 20
-60.648
 11
-67.4123
 21
-61.0516
  0
LINE
  8
0
 10
-67.4123
 20
-61.0516
 11
-70.5879
 21
-63.468
  0
LINE
  8
0
 10
-70.5879
 20
-63.468
 11
-79.5079
 21
-64.9521
  0
LINE
  8
0
 10
-79.5079
 20
-64.9521
 11
-80.9979
 21
-65.2
  0
LINE
  8
0
 10
-80.9979
 20
-65.2
 11
-82.962
 21
-66.7381
  0
LINE
  8
0
 10
-82.962
 20
-66.7381
 11
-83.2327
 21
-66.95
  0
LINE
  8
0
 10
-83.2327
 20
-66.95
 11
-83.721
 21
-67.5017
  0
LINE
  8
0
 10
-83.721
 20
-67.5017
 11
-85.6652
 21
-69.6981
  0
LINE
  8
0
 10
-85.6652
 20
-69.6981
 11
-88.1782
 21
-71.0375
  0
LINE
  8
0
 10
-88.1782
 20
-71.0375
 11
-100.112
 21
-77.3977
  0
LINE
  8
0
 10
-100.112
 20
-77.3977
 11
-101.335
 21
-78.3312
  0
LINE
  8
0
 10
-101.335
 20
-78.3312
 11
-101.687
 21
-78.5994
  0
LINE
  8
0
 10
-101.687
 20
-78.5994
 11
-101.73
 21
-78.6481
  0
LINE
  8
0
 10
-101.73
 20
-78.6481
 11
-101.742
 21
-78.661
  0
LINE
  8
0
 10
-101.742
 20
-78.661
 11
-104.266
 21
-81.4641
  0
LINE
  8
0
 10
-104.266
 20
-81.4641
 11
-111.298
 21
-89.2741
  0
LINE
  8
0
 10
-111.298
 20
-89.2741
 11
-111.298
 21
-89.2741
  0
LINE
  8
0
 10
-111.298
 20
-89.2741
 11
-111.339
 21
-89.3195
  0
LINE
  8
0
 10
-111.339
 20
-89.3195
 11
-110.616
 21
-92.7334
  0
LINE
  8
0
 10
-110.616
 20
-92.7334
 11
-110.358
 21
-93.9518
  0
LINE
  8
0
 10
-110.358
 20
-93.9518
 11
-113.313
 21
-98.0198
  0
LINE
  8
0
 10
-113.313
 20
-98.0198
 11
-118.166
 21
-104.699
  0
LINE
  8
0
 10
-118.166
 20
-104.699
 11
-122.773
 21
-104.668
  0
LINE
  8
0
 10
-122.773
 20
-104.668
 11
-126.438
 21
-104.643
  0
LINE
  8
0
 10
-126.438
 20
-104.643
 11
-126.438
 21
-104.643
  0
LINE
  8
0
 10
-126.438
 20
-104.643
 11
-132.271
 21
-98.8356
  0
LINE
  8
0
 10
-132.271
 20
-98.8356
 11
-138.366
 21
-92.7669
  0
LINE
  8
0
 10
-138.366
 20
-92.7669
 11
-142.47
 21
-91.1394
  0
LINE
  8
0
 10
-142.47
 20
-91.1394
 11
-146.298
 21
-89.6216
  0
LINE
  8
0
 10
-146.298
 20
-89.6216
 11
-153.443
 21
-83.5627
  0
LINE
  8
0
 10
-153.443
 20
-83.5627
 11
-159.395
 21
-78.5157
  0
LINE
  8
0
 10
-159.395
 20
-78.5157
 11
-160.332
 21
-73.8143
  0
LINE
  8
0
 10
-160.332
 20
-73.8143
 11
-161.452
 21
-68.1862
  0
LINE
  8
0
 10
-122.938
 20
-31.2439
 11
-122.088
 21
-29.7717
  0
LINE
  8
0
 10
-122.088
 20
-29.7717
 11
-120.388
 21
-29.7717
  0
LINE
  8
0
 10
-120.388
 20
-29.7717
 11
-119.538
 21
-31.2439
  0
LINE
  8
0
 10
-119.538
 20
-31.2439
 11
-120.388
 21
-32.7162
  0
LINE
  8
0
 10
-120.388
 20
-32.7162
 11
-122.088
 21
-32.7162
  0
LINE
  8
0
 10
-122.088
 20
-32.7162
 11
-122.938
 21
-31.2439
  0
LINE
  8
0
 10
-118.265
 20
43.592
 11
-117.415
 21
45.0642
  0
LINE
  8
0
 10
-117.415
 20
45.0642
 11
-115.715
 21
45.0642
  0
LINE
  8
0
 10
-115.715
 20
45.0642
 11
-114.865
 21
43.592
  0
LINE
  8
0
 10
-114.865
 20
43.592
 11
-115.715
 21
42.1197
  0
LINE
  8
0
 10
-115.715
 20
42.1197
 11
-117.415
 21
42.1197
  0
LINE
  8
0
 10
-117.415
 20
42.1197
 11
-118.265
 21
43.592
  0
LINE
  8
0
 10
-52.7603
 20
65.5546
 11
-51.9103
 21
67.0268
  0
LINE
  8
0
 10
-51.9103
 20
67.0268
 11
-50.2103
 21
67.0268
  0
LINE
  8
0
 10
-50.2103
 20
67.0268
 11
-49.3603
 21
65.5546
  0
LINE
  8
0
 10
-49.3603
 20
65.5546
 11
-50.2103
 21
64.0824
  0
LINE
  8
0
 10
-50.2103
 20
64.0824
 11
-51.9103
 21
64.0824
  0
LINE
  8
0
 10
-51.9103
 20
64.0824
 11
-52.7603
 21
65.5546
  0
LINE
  8
0
 10
-9.403
 20
14.4471
 11
-8.55299
 21
15.9194
  0
LINE
  8
0
 10
-8.55299
 20
15.9194
 11
-6.853
 21
15.9194
  0
LINE
  8
0
 10
-6.853
 20
15.9194
 11
-6.003
 21
14.4471
  0
LINE
  8
0
 10
-6.003
 20
14.4471
 11
-6.853
 21
12.9749
  0
LINE
  8
0
 10
-6.853
 20
12.9749
 11
-8.55299
 21
12.9749
  0
LINE
  8
0
 10
-8.55299
 20
12.9749
 11
-9.403
 21
14.4471
  0
LINE
  8
0
 10
-68.6457
 20
-69.7929
 11
-68.2323
 21
-71.6042
  0
LINE
  8
0
 10
-68.2323
 20
-71.6042
 11
-68.2245
 21
-71.6382
  0
LINE
  8
0
 10
-68.2245
 20
-71.6382
 11
-68.2028
 21
-71.6654
  0
LINE
  8
0
 10
-68.2028
 20
-71.6654
 11
-67.0444
 21
-73.118
  0
LINE
  8
0
 10
-67.0444
 20
-73.118
 11
-65.3705
 21
-73.9241
  0
LINE
  8
0
 10
-65.3705
 20
-73.9241
 11
-65.3391
 21
-73.9393
  0
LINE
  8
0
 10
-65.3391
 20
-73.9393
 11
-63.4463
 21
-73.9393
  0
LINE
  8
0
 10
-63.4463
 20
-73.9393
 11
-63.4149
 21
-73.9241
  0
LINE
  8
0
 10
-63.4149
 20
-73.9241
 11
-61.741
 21
-73.118
  0
LINE
  8
0
 10
-61.741
 20
-73.118
 11
-60.5826
 21
-71.6654
  0
LINE
  8
0
 10
-60.5826
 20
-71.6654
 11
-60.5609
 21
-71.6382
  0
LINE
  8
0
 10
-60.5609
 20
-71.6382
 11
-60.5531
 21
-71.6042
  0
LINE
  8
0
 10
-60.5531
 20
-71.6042
 11
-60.1397
 21
-69.7929
  0
LINE
  8
0
 10
-60.1397
 20
-69.7929
 11
-60.5531
 21
-67.9815
  0
LINE
  8
0
 10
-60.5531
 20
-67.9815
 11
-60.5609
 21
-67.9476
  0
LINE
  8
0
 10
-60.5609
 20
-67.9476
 11
-60.5826
 21
-67.9203
  0
LINE
  8
0
 10
-60.5826
 20
-67.9203
 11
-61.741
 21
-66.4677
  0
LINE
  8
0
 10
-61.741
 20
-66.4677
 11
-63.4149
 21
-65.6616
  0
LINE
  8
0
 10
-63.4149
 20
-65.6616
 11
-63.4463
 21
-65.6465
  0
LINE
  8
0
 10
-63.4463
 20
-65.6465
 11
-65.3391
 21
-65.6465
  0
LINE
  8
0
 10
-65.3391
 20
-65.6465
 11
-65.3705
 21
-65.6616
  0
LINE
  8
0
 10
-65.3705
 20
-65.6616
 11
-67.0444
 21
-66.4677
  0
LINE
  8
0
 10
-67.0444
 20
-66.4677
 11
-68.2028
 21
-67.9203
  0
LINE
  8
0
 10
-68.2028
 20
-67.9203
 11
-68.2245
 21
-67.9476
  0
LINE
  8
0
 10
-68.2245
 20
-67.9476
 11
-68.2323
 21
-67.9815
  0
LINE
  8
0
 10
-68.2323
 20
-67.9815
 11
-68.6457
 21
-69.7929
  0
LINE
  8
0
 10
-66.0927
 20
-69.7929
 11
-65.2427
 21
-68.3206
  0
LINE
  8
0
 10
-65.2427
 20
-68.3206
 11
-63.5427
 21
-68.3206
  0
LINE
  8
0
 10
-63.5427
 20
-68.3206
 11
-62.6927
 21
-69.7929
  0
LINE
  8
0
 10
-62.6927
 20
-69.7929
 11
-63.5427
 21
-71.2651
  0
LINE
  8
0
 10
-63.5427
 20
-71.2651
 11
-65.2427
 21
-71.2651
  0
LINE
  8
0
 10
-65.2427
 20
-71.2651
 11
-66.0927
 21
-69.7929
  0
ENDSEC
  0
SECTION
  2
OBJECTS
  0
DICTIONARY
  0
ENDSEC
  0
EOF
