solid OpenSCAD_Model
  facet normal 0 1 -0
    outer loop
      vertex -80.4718 43.2689 0
      vertex -82.1718 43.2689 1.5
      vertex -80.4718 43.2689 1.5
    endloop
  endfacet
  facet normal 0 1 0
    outer loop
      vertex -82.1718 43.2689 1.5
      vertex -80.4718 43.2689 0
      vertex -82.1718 43.2689 0
    endloop
  endfacet
  facet normal -0.866034 0.499986 0
    outer loop
      vertex -80.4718 43.2689 0
      vertex -79.6218 44.7412 1.5
      vertex -79.6218 44.7412 0
    endloop
  endfacet
  facet normal -0.866034 0.499986 0
    outer loop
      vertex -79.6218 44.7412 1.5
      vertex -80.4718 43.2689 0
      vertex -80.4718 43.2689 1.5
    endloop
  endfacet
  facet normal 0 -1 0
    outer loop
      vertex -82.1718 46.2134 0
      vertex -80.4718 46.2134 1.5
      vertex -82.1718 46.2134 1.5
    endloop
  endfacet
  facet normal 0 -1 -0
    outer loop
      vertex -80.4718 46.2134 1.5
      vertex -82.1718 46.2134 0
      vertex -80.4718 46.2134 0
    endloop
  endfacet
  facet normal -0.866019 -0.500011 0
    outer loop
      vertex -79.6218 44.7412 0
      vertex -80.4718 46.2134 1.5
      vertex -80.4718 46.2134 0
    endloop
  endfacet
  facet normal -0.866019 -0.500011 0
    outer loop
      vertex -80.4718 46.2134 1.5
      vertex -79.6218 44.7412 0
      vertex -79.6218 44.7412 1.5
    endloop
  endfacet
  facet normal 0.866019 -0.500011 0
    outer loop
      vertex -83.0218 44.7412 1.5
      vertex -82.1718 46.2134 0
      vertex -82.1718 46.2134 1.5
    endloop
  endfacet
  facet normal 0.866019 -0.500011 0
    outer loop
      vertex -82.1718 46.2134 0
      vertex -83.0218 44.7412 1.5
      vertex -83.0218 44.7412 0
    endloop
  endfacet
  facet normal 0.866034 0.499986 0
    outer loop
      vertex -82.1718 43.2689 1.5
      vertex -83.0218 44.7412 0
      vertex -83.0218 44.7412 1.5
    endloop
  endfacet
  facet normal 0.866034 0.499986 0
    outer loop
      vertex -83.0218 44.7412 0
      vertex -82.1718 43.2689 1.5
      vertex -82.1718 43.2689 0
    endloop
  endfacet
  facet normal 0 0 1
    outer loop
      vertex -80.4718 46.2134 0
      vertex -80.4718 43.2689 0
      vertex -79.6218 44.7412 0
    endloop
  endfacet
  facet normal -0 0 1
    outer loop
      vertex -82.1718 46.2134 0
      vertex -80.4718 43.2689 0
      vertex -80.4718 46.2134 0
    endloop
  endfacet
  facet normal 0 0 1
    outer loop
      vertex -82.1718 46.2134 0
      vertex -82.1718 43.2689 0
      vertex -80.4718 43.2689 0
    endloop
  endfacet
  facet normal 0 -0 1
    outer loop
      vertex -82.1718 43.2689 0
      vertex -82.1718 46.2134 0
      vertex -83.0218 44.7412 0
    endloop
  endfacet
  facet normal 0 1 -0
    outer loop
      vertex -83.7641 -33.5398 0
      vertex -85.4641 -33.5398 1.5
      vertex -83.7641 -33.5398 1.5
    endloop
  endfacet
  facet normal 0 1 0
    outer loop
      vertex -85.4641 -33.5398 1.5
      vertex -83.7641 -33.5398 0
      vertex -85.4641 -33.5398 0
    endloop
  endfacet
  facet normal -0.866019 0.500011 0
    outer loop
      vertex -83.7641 -33.5398 0
      vertex -82.9141 -32.0676 1.5
      vertex -82.9141 -32.0676 0
    endloop
  endfacet
  facet normal -0.866019 0.500011 0
    outer loop
      vertex -82.9141 -32.0676 1.5
      vertex -83.7641 -33.5398 0
      vertex -83.7641 -33.5398 1.5
    endloop
  endfacet
  facet normal 0 -1 0
    outer loop
      vertex -85.4641 -30.5954 0
      vertex -83.7641 -30.5954 1.5
      vertex -85.4641 -30.5954 1.5
    endloop
  endfacet
  facet normal 0 -1 -0
    outer loop
      vertex -83.7641 -30.5954 1.5
      vertex -85.4641 -30.5954 0
      vertex -83.7641 -30.5954 0
    endloop
  endfacet
  facet normal -0.866019 -0.500011 0
    outer loop
      vertex -82.9141 -32.0676 0
      vertex -83.7641 -30.5954 1.5
      vertex -83.7641 -30.5954 0
    endloop
  endfacet
  facet normal -0.866019 -0.500011 0
    outer loop
      vertex -83.7641 -30.5954 1.5
      vertex -82.9141 -32.0676 0
      vertex -82.9141 -32.0676 1.5
    endloop
  endfacet
  facet normal 0.866019 -0.500011 0
    outer loop
      vertex -86.3141 -32.0676 1.5
      vertex -85.4641 -30.5954 0
      vertex -85.4641 -30.5954 1.5
    endloop
  endfacet
  facet normal 0.866019 -0.500011 0
    outer loop
      vertex -85.4641 -30.5954 0
      vertex -86.3141 -32.0676 1.5
      vertex -86.3141 -32.0676 0
    endloop
  endfacet
  facet normal 0.866019 0.500011 0
    outer loop
      vertex -85.4641 -33.5398 1.5
      vertex -86.3141 -32.0676 0
      vertex -86.3141 -32.0676 1.5
    endloop
  endfacet
  facet normal 0.866019 0.500011 0
    outer loop
      vertex -86.3141 -32.0676 0
      vertex -85.4641 -33.5398 1.5
      vertex -85.4641 -33.5398 0
    endloop
  endfacet
  facet normal 0 0 1
    outer loop
      vertex -83.7641 -30.5954 0
      vertex -83.7641 -33.5398 0
      vertex -82.9141 -32.0676 0
    endloop
  endfacet
  facet normal -0 0 1
    outer loop
      vertex -85.4641 -30.5954 0
      vertex -83.7641 -33.5398 0
      vertex -83.7641 -30.5954 0
    endloop
  endfacet
  facet normal 0 0 1
    outer loop
      vertex -85.4641 -30.5954 0
      vertex -85.4641 -33.5398 0
      vertex -83.7641 -33.5398 0
    endloop
  endfacet
  facet normal 0 -0 1
    outer loop
      vertex -85.4641 -33.5398 0
      vertex -85.4641 -30.5954 0
      vertex -86.3141 -32.0676 0
    endloop
  endfacet
  facet normal 0 1 -0
    outer loop
      vertex -15.6488 -72.8366 0
      vertex -17.3488 -72.8366 1.5
      vertex -15.6488 -72.8366 1.5
    endloop
  endfacet
  facet normal 0 1 0
    outer loop
      vertex -17.3488 -72.8366 1.5
      vertex -15.6488 -72.8366 0
      vertex -17.3488 -72.8366 0
    endloop
  endfacet
  facet normal -0.866019 0.500011 0
    outer loop
      vertex -15.6488 -72.8366 0
      vertex -14.7988 -71.3644 1.5
      vertex -14.7988 -71.3644 0
    endloop
  endfacet
  facet normal -0.866019 0.500011 0
    outer loop
      vertex -14.7988 -71.3644 1.5
      vertex -15.6488 -72.8366 0
      vertex -15.6488 -72.8366 1.5
    endloop
  endfacet
  facet normal 0 -1 0
    outer loop
      vertex -17.3488 -69.8921 0
      vertex -15.6488 -69.8921 1.5
      vertex -17.3488 -69.8921 1.5
    endloop
  endfacet
  facet normal 0 -1 -0
    outer loop
      vertex -15.6488 -69.8921 1.5
      vertex -17.3488 -69.8921 0
      vertex -15.6488 -69.8921 0
    endloop
  endfacet
  facet normal -0.866034 -0.499986 0
    outer loop
      vertex -14.7988 -71.3644 0
      vertex -15.6488 -69.8921 1.5
      vertex -15.6488 -69.8921 0
    endloop
  endfacet
  facet normal -0.866034 -0.499986 0
    outer loop
      vertex -15.6488 -69.8921 1.5
      vertex -14.7988 -71.3644 0
      vertex -14.7988 -71.3644 1.5
    endloop
  endfacet
  facet normal 0.866034 -0.499986 0
    outer loop
      vertex -18.1988 -71.3644 1.5
      vertex -17.3488 -69.8921 0
      vertex -17.3488 -69.8921 1.5
    endloop
  endfacet
  facet normal 0.866034 -0.499986 0
    outer loop
      vertex -17.3488 -69.8921 0
      vertex -18.1988 -71.3644 1.5
      vertex -18.1988 -71.3644 0
    endloop
  endfacet
  facet normal 0.866019 0.500011 0
    outer loop
      vertex -17.3488 -72.8366 1.5
      vertex -18.1988 -71.3644 0
      vertex -18.1988 -71.3644 1.5
    endloop
  endfacet
  facet normal 0.866019 0.500011 0
    outer loop
      vertex -18.1988 -71.3644 0
      vertex -17.3488 -72.8366 1.5
      vertex -17.3488 -72.8366 0
    endloop
  endfacet
  facet normal 0 0 1
    outer loop
      vertex -15.6488 -69.8921 0
      vertex -15.6488 -72.8366 0
      vertex -14.7988 -71.3644 0
    endloop
  endfacet
  facet normal -0 0 1
    outer loop
      vertex -17.3488 -69.8921 0
      vertex -15.6488 -72.8366 0
      vertex -15.6488 -69.8921 0
    endloop
  endfacet
  facet normal 0 0 1
    outer loop
      vertex -17.3488 -69.8921 0
      vertex -17.3488 -72.8366 0
      vertex -15.6488 -72.8366 0
    endloop
  endfacet
  facet normal 0 -0 1
    outer loop
      vertex -17.3488 -72.8366 0
      vertex -17.3488 -69.8921 0
      vertex -18.1988 -71.3644 0
    endloop
  endfacet
  facet normal 0 1 -0
    outer loop
      vertex 3.167 65.4914 0
      vertex 1.467 65.4914 1.5
      vertex 3.167 65.4914 1.5
    endloop
  endfacet
  facet normal 0 1 0
    outer loop
      vertex 1.467 65.4914 1.5
      vertex 3.167 65.4914 0
      vertex 1.467 65.4914 0
    endloop
  endfacet
  facet normal -0.866019 0.500011 0
    outer loop
      vertex 3.167 65.4914 0
      vertex 4.017 66.9636 1.5
      vertex 4.017 66.9636 0
    endloop
  endfacet
  facet normal -0.866019 0.500011 0
    outer loop
      vertex 4.017 66.9636 1.5
      vertex 3.167 65.4914 0
      vertex 3.167 65.4914 1.5
    endloop
  endfacet
  facet normal 0 -1 0
    outer loop
      vertex 1.467 68.4358 0
      vertex 3.167 68.4358 1.5
      vertex 1.467 68.4358 1.5
    endloop
  endfacet
  facet normal 0 -1 -0
    outer loop
      vertex 3.167 68.4358 1.5
      vertex 1.467 68.4358 0
      vertex 3.167 68.4358 0
    endloop
  endfacet
  facet normal -0.866019 -0.500011 0
    outer loop
      vertex 4.017 66.9636 0
      vertex 3.167 68.4358 1.5
      vertex 3.167 68.4358 0
    endloop
  endfacet
  facet normal -0.866019 -0.500011 0
    outer loop
      vertex 3.167 68.4358 1.5
      vertex 4.017 66.9636 0
      vertex 4.017 66.9636 1.5
    endloop
  endfacet
  facet normal 0.86602 -0.50001 0
    outer loop
      vertex 0.617003 66.9636 1.5
      vertex 1.467 68.4358 0
      vertex 1.467 68.4358 1.5
    endloop
  endfacet
  facet normal 0.86602 -0.50001 0
    outer loop
      vertex 1.467 68.4358 0
      vertex 0.617003 66.9636 1.5
      vertex 0.617003 66.9636 0
    endloop
  endfacet
  facet normal 0.86602 0.50001 0
    outer loop
      vertex 1.467 65.4914 1.5
      vertex 0.617003 66.9636 0
      vertex 0.617003 66.9636 1.5
    endloop
  endfacet
  facet normal 0.86602 0.50001 0
    outer loop
      vertex 0.617003 66.9636 0
      vertex 1.467 65.4914 1.5
      vertex 1.467 65.4914 0
    endloop
  endfacet
  facet normal 0 0 1
    outer loop
      vertex 3.167 68.4358 0
      vertex 3.167 65.4914 0
      vertex 4.017 66.9636 0
    endloop
  endfacet
  facet normal -0 0 1
    outer loop
      vertex 1.467 68.4358 0
      vertex 3.167 65.4914 0
      vertex 3.167 68.4358 0
    endloop
  endfacet
  facet normal 0 0 1
    outer loop
      vertex 1.467 68.4358 0
      vertex 1.467 65.4914 0
      vertex 3.167 65.4914 0
    endloop
  endfacet
  facet normal 0 -0 1
    outer loop
      vertex 1.467 65.4914 0
      vertex 1.467 68.4358 0
      vertex 0.617003 66.9636 0
    endloop
  endfacet
  facet normal 0 1 -0
    outer loop
      vertex 60.5828 13.5698 0
      vertex 58.8828 13.5698 1.5
      vertex 60.5828 13.5698 1.5
    endloop
  endfacet
  facet normal 0 1 0
    outer loop
      vertex 58.8828 13.5698 1.5
      vertex 60.5828 13.5698 0
      vertex 58.8828 13.5698 0
    endloop
  endfacet
  facet normal -0.866019 0.500011 0
    outer loop
      vertex 60.5828 13.5698 0
      vertex 61.4328 15.042 1.5
      vertex 61.4328 15.042 0
    endloop
  endfacet
  facet normal -0.866019 0.500011 0
    outer loop
      vertex 61.4328 15.042 1.5
      vertex 60.5828 13.5698 0
      vertex 60.5828 13.5698 1.5
    endloop
  endfacet
  facet normal 0 -1 0
    outer loop
      vertex 58.8828 16.5143 0
      vertex 60.5828 16.5143 1.5
      vertex 58.8828 16.5143 1.5
    endloop
  endfacet
  facet normal 0 -1 -0
    outer loop
      vertex 60.5828 16.5143 1.5
      vertex 58.8828 16.5143 0
      vertex 60.5828 16.5143 0
    endloop
  endfacet
  facet normal -0.866034 -0.499986 0
    outer loop
      vertex 61.4328 15.042 0
      vertex 60.5828 16.5143 1.5
      vertex 60.5828 16.5143 0
    endloop
  endfacet
  facet normal -0.866034 -0.499986 0
    outer loop
      vertex 60.5828 16.5143 1.5
      vertex 61.4328 15.042 0
      vertex 61.4328 15.042 1.5
    endloop
  endfacet
  facet normal 0.866034 -0.499986 0
    outer loop
      vertex 58.0328 15.042 1.5
      vertex 58.8828 16.5143 0
      vertex 58.8828 16.5143 1.5
    endloop
  endfacet
  facet normal 0.866034 -0.499986 0
    outer loop
      vertex 58.8828 16.5143 0
      vertex 58.0328 15.042 1.5
      vertex 58.0328 15.042 0
    endloop
  endfacet
  facet normal 0.866019 0.500011 0
    outer loop
      vertex 58.8828 13.5698 1.5
      vertex 58.0328 15.042 0
      vertex 58.0328 15.042 1.5
    endloop
  endfacet
  facet normal 0.866019 0.500011 0
    outer loop
      vertex 58.0328 15.042 0
      vertex 58.8828 13.5698 1.5
      vertex 58.8828 13.5698 0
    endloop
  endfacet
  facet normal 0 0 1
    outer loop
      vertex 60.5828 16.5143 0
      vertex 60.5828 13.5698 0
      vertex 61.4328 15.042 0
    endloop
  endfacet
  facet normal -0 0 1
    outer loop
      vertex 58.8828 16.5143 0
      vertex 60.5828 13.5698 0
      vertex 60.5828 16.5143 0
    endloop
  endfacet
  facet normal 0 0 1
    outer loop
      vertex 58.8828 16.5143 0
      vertex 58.8828 13.5698 0
      vertex 60.5828 13.5698 0
    endloop
  endfacet
  facet normal 0 -0 1
    outer loop
      vertex 58.8828 13.5698 0
      vertex 58.8828 16.5143 0
      vertex 58.0328 15.042 0
    endloop
  endfacet
  facet normal 0 0 -1
    outer loop
      vertex -12.6652 -73.2106 -1.5
      vertex -12.6652 -69.5182 -1.5
      vertex -12.2438 -71.3644 -1.5
    endloop
  endfacet
  facet normal 0 0 -1
    outer loop
      vertex -13.8458 -74.6911 -1.5
      vertex -12.6652 -69.5182 -1.5
      vertex -12.6652 -73.2106 -1.5
    endloop
  endfacet
  facet normal 0 0 -1
    outer loop
      vertex -13.8458 -74.6911 -1.5
      vertex -13.8458 -68.0377 -1.5
      vertex -12.6652 -69.5182 -1.5
    endloop
  endfacet
  facet normal 0 0 -1
    outer loop
      vertex -15.552 -75.5127 -1.5
      vertex -13.8458 -68.0377 -1.5
      vertex -13.8458 -74.6911 -1.5
    endloop
  endfacet
  facet normal 0 0 -1
    outer loop
      vertex -15.552 -75.5127 -1.5
      vertex -15.552 -67.2161 -1.5
      vertex -13.8458 -68.0377 -1.5
    endloop
  endfacet
  facet normal 0 0 -1
    outer loop
      vertex -17.4456 -75.5127 -1.5
      vertex -15.552 -67.2161 -1.5
      vertex -15.552 -75.5127 -1.5
    endloop
  endfacet
  facet normal 0 0 -1
    outer loop
      vertex -17.4456 -75.5127 -1.5
      vertex -17.4456 -67.2161 -1.5
      vertex -15.552 -67.2161 -1.5
    endloop
  endfacet
  facet normal 0 0 -1
    outer loop
      vertex -19.1517 -74.6911 -1.5
      vertex -17.4456 -67.2161 -1.5
      vertex -17.4456 -75.5127 -1.5
    endloop
  endfacet
  facet normal 0 0 -1
    outer loop
      vertex -19.1517 -74.6911 -1.5
      vertex -19.1517 -68.0377 -1.5
      vertex -17.4456 -67.2161 -1.5
    endloop
  endfacet
  facet normal 0 0 -1
    outer loop
      vertex -20.3324 -73.2106 -1.5
      vertex -19.1517 -68.0377 -1.5
      vertex -19.1517 -74.6911 -1.5
    endloop
  endfacet
  facet normal 0 0 -1
    outer loop
      vertex -20.3324 -73.2106 -1.5
      vertex -20.3324 -69.5182 -1.5
      vertex -19.1517 -68.0377 -1.5
    endloop
  endfacet
  facet normal 0 -0 -1
    outer loop
      vertex -20.3324 -69.5182 -1.5
      vertex -20.3324 -73.2106 -1.5
      vertex -20.7538 -71.3644 -1.5
    endloop
  endfacet
  facet normal 0 0 -1
    outer loop
      vertex 61.8204 11.4431 -1.5
      vertex 63.9878 15.042 -1.5
      vertex 63.5665 13.1958 -1.5
    endloop
  endfacet
  facet normal 0 0 -1
    outer loop
      vertex 63.9878 15.042 -1.5
      vertex 62.7219 17.9472 -1.5
      vertex 63.5665 16.8882 -1.5
    endloop
  endfacet
  facet normal 0 0 -1
    outer loop
      vertex 61.8204 11.4431 -1.5
      vertex 63.5665 13.1958 -1.5
      vertex 62.3858 11.7153 -1.5
    endloop
  endfacet
  facet normal 0 0 -1
    outer loop
      vertex 54.7153 57.3117 -1.5
      vertex 65.2647 46.0354 -1.5
      vertex 64.0191 30.5335 -1.5
    endloop
  endfacet
  facet normal 0 0 -1
    outer loop
      vertex 63.3496 22.4761 -1.5
      vertex 64.0191 30.5335 -1.5
      vertex 63.6336 23.8466 -1.5
    endloop
  endfacet
  facet normal -0 0 -1
    outer loop
      vertex 64.0191 30.5335 -1.5
      vertex 63.3496 22.4761 -1.5
      vertex 16.3586 57.3117 -1.5
    endloop
  endfacet
  facet normal 0 0 -1
    outer loop
      vertex 16.3586 57.3117 -1.5
      vertex 63.3496 22.4761 -1.5
      vertex 62.7219 17.9472 -1.5
    endloop
  endfacet
  facet normal -0 0 -1
    outer loop
      vertex 63.9878 15.042 -1.5
      vertex 61.8204 11.4431 -1.5
      vertex 62.7219 17.9472 -1.5
    endloop
  endfacet
  facet normal 0 0 -1
    outer loop
      vertex 16.3586 57.3117 -1.5
      vertex 62.7219 17.9472 -1.5
      vertex 61.8204 11.4431 -1.5
    endloop
  endfacet
  facet normal 0 0 -1
    outer loop
      vertex 16.3586 57.3117 -1.5
      vertex 61.8204 11.4431 -1.5
      vertex 60.8087 4.14293 -1.5
    endloop
  endfacet
  facet normal 0 0 -1
    outer loop
      vertex 65.2647 46.0354 -1.5
      vertex 54.7153 57.3117 -1.5
      vertex 64.8428 47.7854 -1.5
    endloop
  endfacet
  facet normal 0 0 -1
    outer loop
      vertex 16.3586 57.3117 -1.5
      vertex 60.8087 4.14293 -1.5
      vertex 60.2993 -3.09999 -1.5
    endloop
  endfacet
  facet normal 0 0 -1
    outer loop
      vertex -67.6652 -108.197 -1.5
      vertex -60.3286 -91.5359 -1.5
      vertex -58.7919 -95.9836 -1.5
    endloop
  endfacet
  facet normal 0 0 -1
    outer loop
      vertex -74.4293 -109.079 -1.5
      vertex -60.3286 -91.5359 -1.5
      vertex -67.6652 -108.197 -1.5
    endloop
  endfacet
  facet normal 0 0 -1
    outer loop
      vertex -60.3286 -91.5359 -1.5
      vertex -85.5532 -27.9193 -1.5
      vertex -61.7146 69.3117 -1.5
    endloop
  endfacet
  facet normal 0 0 -1
    outer loop
      vertex -74.4293 -109.079 -1.5
      vertex -67.6652 -108.197 -1.5
      vertex -69.5227 -109.112 -1.5
    endloop
  endfacet
  facet normal 0 0 -1
    outer loop
      vertex -86.0156 -107.258 -1.5
      vertex -60.3286 -91.5359 -1.5
      vertex -74.4293 -109.079 -1.5
    endloop
  endfacet
  facet normal 0 0 -1
    outer loop
      vertex -87.5091 -14.5164 -1.5
      vertex -61.7146 69.3117 -1.5
      vertex -85.5532 -27.9193 -1.5
    endloop
  endfacet
  facet normal 0 0 -1
    outer loop
      vertex -87.9011 -9.04999 -1.5
      vertex -61.7146 69.3117 -1.5
      vertex -87.5091 -14.5164 -1.5
    endloop
  endfacet
  facet normal 0 0 -1
    outer loop
      vertex -67.9209 63.5854 -1.5
      vertex -80.1215 48.7674 -1.5
      vertex -78.9209 52.5854 -1.5
    endloop
  endfacet
  facet normal 0 0 -1
    outer loop
      vertex -67.9209 63.5854 -1.5
      vertex -82.6362 40.7699 -1.5
      vertex -80.1215 48.7674 -1.5
    endloop
  endfacet
  facet normal 0 0 -1
    outer loop
      vertex -80.1215 48.7674 -1.5
      vertex -82.2686 48.8895 -1.5
      vertex -80.3749 48.8895 -1.5
    endloop
  endfacet
  facet normal 0 0 -1
    outer loop
      vertex -86.0156 -107.258 -1.5
      vertex -74.4293 -109.079 -1.5
      vertex -83.7135 -108.424 -1.5
    endloop
  endfacet
  facet normal 0 0 -1
    outer loop
      vertex -83.9747 48.0679 -1.5
      vertex -80.1215 48.7674 -1.5
      vertex -82.6362 40.7699 -1.5
    endloop
  endfacet
  facet normal 0 0 -1
    outer loop
      vertex -87.9011 9.04999 -1.5
      vertex -61.7146 69.3117 -1.5
      vertex -87.9011 -9.04999 -1.5
    endloop
  endfacet
  facet normal 0 0 -1
    outer loop
      vertex -82.6362 40.7699 -1.5
      vertex -84.9718 31.9031 -1.5
      vertex -83.8226 36.9969 -1.5
    endloop
  endfacet
  facet normal 0 0 -1
    outer loop
      vertex -60.3286 -91.5359 -1.5
      vertex -88.6388 -33.0768 -1.5
      vertex -85.5532 -27.9193 -1.5
    endloop
  endfacet
  facet normal 0 0 -1
    outer loop
      vertex -60.3286 -91.5359 -1.5
      vertex -86.0156 -107.258 -1.5
      vertex -97.5945 -95.7289 -1.5
    endloop
  endfacet
  facet normal 0 -0 -1
    outer loop
      vertex -87.267 -28.7409 -1.5
      vertex -85.5532 -27.9193 -1.5
      vertex -88.6388 -33.0768 -1.5
    endloop
  endfacet
  facet normal -0 0 -1
    outer loop
      vertex -85.5532 -27.9193 -1.5
      vertex -87.267 -28.7409 -1.5
      vertex -85.5609 -27.9193 -1.5
    endloop
  endfacet
  facet normal 0 0 -1
    outer loop
      vertex -87.267 -28.7409 -1.5
      vertex -88.6388 -33.0768 -1.5
      vertex -88.4477 -30.2214 -1.5
    endloop
  endfacet
  facet normal 0 0 -1
    outer loop
      vertex -112.307 -60.6336 -1.5
      vertex -60.3286 -91.5359 -1.5
      vertex -97.5945 -95.7289 -1.5
    endloop
  endfacet
  facet normal 0 0 -1
    outer loop
      vertex -103.633 -94.9341 -1.5
      vertex -97.5945 -95.7289 -1.5
      vertex -99.0746 -95.8717 -1.5
    endloop
  endfacet
  facet normal 0 0 -1
    outer loop
      vertex -60.3286 -91.5359 -1.5
      vertex -112.307 -60.6336 -1.5
      vertex -88.6388 -33.0768 -1.5
    endloop
  endfacet
  facet normal 0 0 -1
    outer loop
      vertex -97.5945 -95.7289 -1.5
      vertex -103.633 -94.9341 -1.5
      vertex -112.307 -60.6336 -1.5
    endloop
  endfacet
  facet normal 0 0 -1
    outer loop
      vertex -88.6388 -33.0768 -1.5
      vertex -112.307 -60.6336 -1.5
      vertex -102.771 -37.9856 -1.5
    endloop
  endfacet
  facet normal 0 0 -1
    outer loop
      vertex -102.771 -37.9856 -1.5
      vertex -112.307 -60.6336 -1.5
      vertex -112.106 -45.8192 -1.5
    endloop
  endfacet
  facet normal 0 0 -1
    outer loop
      vertex -118.111 -79.4381 -1.5
      vertex -103.633 -94.9341 -1.5
      vertex -117.34 -83.3117 -1.5
    endloop
  endfacet
  facet normal 0 0 -1
    outer loop
      vertex -103.633 -94.9341 -1.5
      vertex -118.111 -79.4381 -1.5
      vertex -112.307 -60.6336 -1.5
    endloop
  endfacet
  facet normal 0 0 -1
    outer loop
      vertex -112.307 -60.6336 -1.5
      vertex -118.111 -79.4381 -1.5
      vertex -117.509 -67.292 -1.5
    endloop
  endfacet
  facet normal 0 0 -1
    outer loop
      vertex -117.509 -67.292 -1.5
      vertex -118.111 -79.4381 -1.5
      vertex -118.464 -69.5927 -1.5
    endloop
  endfacet
  facet normal 0 0 -1
    outer loop
      vertex 62.397 -47.8829 -1.5
      vertex 60.8087 -28.1429 -1.5
      vertex 63.3639 -46.5791 -1.5
    endloop
  endfacet
  facet normal 0 0 -1
    outer loop
      vertex -5.01672 -66.4917 -1.5
      vertex 60.2993 -3.09999 -1.5
      vertex 60.2993 -20.9 -1.5
    endloop
  endfacet
  facet normal 0 0 -1
    outer loop
      vertex 4.81644 -69.3117 -1.5
      vertex 60.2993 -20.9 -1.5
      vertex 60.8087 -28.1429 -1.5
    endloop
  endfacet
  facet normal 0 0 -1
    outer loop
      vertex 53.8484 -56.9657 -1.5
      vertex 60.8087 -28.1429 -1.5
      vertex 62.397 -47.8829 -1.5
    endloop
  endfacet
  facet normal 0 0 -1
    outer loop
      vertex 52.5983 -58.2311 -1.5
      vertex 60.8087 -28.1429 -1.5
      vertex 53.8484 -56.9657 -1.5
    endloop
  endfacet
  facet normal 0 0 -1
    outer loop
      vertex 60.8087 -28.1429 -1.5
      vertex 52.5983 -58.2311 -1.5
      vertex 4.81644 -69.3117 -1.5
    endloop
  endfacet
  facet normal 0 0 -1
    outer loop
      vertex 26.9714 -81.3117 -1.5
      vertex 52.5983 -58.2311 -1.5
      vertex 39.151 -81.3117 -1.5
    endloop
  endfacet
  facet normal 0 0 -1
    outer loop
      vertex 52.5983 -58.2311 -1.5
      vertex 26.9714 -81.3117 -1.5
      vertex 4.81644 -69.3117 -1.5
    endloop
  endfacet
  facet normal 0 0 -1
    outer loop
      vertex 60.2993 -20.9 -1.5
      vertex 4.81644 -69.3117 -1.5
      vertex -5.01672 -66.4917 -1.5
    endloop
  endfacet
  facet normal 0 0 -1
    outer loop
      vertex 64.0191 30.5335 -1.5
      vertex 16.3586 57.3117 -1.5
      vertex 54.7153 57.3117 -1.5
    endloop
  endfacet
  facet normal -0 0 -1
    outer loop
      vertex 60.2993 -3.09999 -1.5
      vertex -5.01672 -66.4917 -1.5
      vertex 16.3586 57.3117 -1.5
    endloop
  endfacet
  facet normal 0 0 -1
    outer loop
      vertex -16.3389 -66.4917 -1.5
      vertex 16.3586 57.3117 -1.5
      vertex -5.01672 -66.4917 -1.5
    endloop
  endfacet
  facet normal -0 -0 -1
    outer loop
      vertex 5.75037 69.3117 -1.5
      vertex 16.3586 57.3117 -1.5
      vertex -1.11636 69.3117 -1.5
    endloop
  endfacet
  facet normal 0 0 -1
    outer loop
      vertex 12.4105 67.5617 -1.5
      vertex 5.75037 69.3117 -1.5
      vertex 11.4738 69.3117 -1.5
    endloop
  endfacet
  facet normal 0 0 -1
    outer loop
      vertex 16.3586 57.3117 -1.5
      vertex 5.75037 69.3117 -1.5
      vertex 12.4105 67.5617 -1.5
    endloop
  endfacet
  facet normal 0 0 -1
    outer loop
      vertex 5.75037 69.3117 -1.5
      vertex 3.26382 71.1119 -1.5
      vertex 4.96994 70.2903 -1.5
    endloop
  endfacet
  facet normal -0 0 -1
    outer loop
      vertex 3.26382 71.1119 -1.5
      vertex -1.11636 69.3117 -1.5
      vertex 1.37016 71.1119 -1.5
    endloop
  endfacet
  facet normal 0 0 -1
    outer loop
      vertex 1.37016 71.1119 -1.5
      vertex -1.11636 69.3117 -1.5
      vertex -0.335938 70.2903 -1.5
    endloop
  endfacet
  facet normal 0 -0 -1
    outer loop
      vertex 3.26382 71.1119 -1.5
      vertex 5.75037 69.3117 -1.5
      vertex -1.11636 69.3117 -1.5
    endloop
  endfacet
  facet normal 0 0 -1
    outer loop
      vertex 16.3586 57.3117 -1.5
      vertex -5.55006 69.3117 -1.5
      vertex -1.11636 69.3117 -1.5
    endloop
  endfacet
  facet normal 0 0 -1
    outer loop
      vertex -28.0985 69.3117 -1.5
      vertex 16.3586 57.3117 -1.5
      vertex -16.3389 -66.4917 -1.5
    endloop
  endfacet
  facet normal 0 0 -1
    outer loop
      vertex 16.3586 57.3117 -1.5
      vertex -28.0985 69.3117 -1.5
      vertex -5.55006 69.3117 -1.5
    endloop
  endfacet
  facet normal 0 0 -1
    outer loop
      vertex -36.1094 -71.4863 -1.5
      vertex -16.3389 -66.4917 -1.5
      vertex -23.154 -69.3117 -1.5
    endloop
  endfacet
  facet normal 0 0 -1
    outer loop
      vertex -5.55006 69.3117 -1.5
      vertex -28.0985 69.3117 -1.5
      vertex -9.98744 72.1317 -1.5
    endloop
  endfacet
  facet normal -0 0 -1
    outer loop
      vertex -9.98744 72.1317 -1.5
      vertex -28.0985 69.3117 -1.5
      vertex -26.5565 72.1317 -1.5
    endloop
  endfacet
  facet normal -0 0 -1
    outer loop
      vertex -16.3389 -66.4917 -1.5
      vertex -36.1094 -71.4863 -1.5
      vertex -28.0985 69.3117 -1.5
    endloop
  endfacet
  facet normal 0 0 -1
    outer loop
      vertex -37.5787 -74.3328 -1.5
      vertex -36.1094 -71.4863 -1.5
      vertex -36.3579 -73.5004 -1.5
    endloop
  endfacet
  facet normal 0 0 -1
    outer loop
      vertex -36.1094 -71.4863 -1.5
      vertex -37.5787 -74.3328 -1.5
      vertex -51.111 -81.2988 -1.5
    endloop
  endfacet
  facet normal -0 0 -1
    outer loop
      vertex -36.1094 -71.4863 -1.5
      vertex -51.111 -81.2988 -1.5
      vertex -61.7146 69.3117 -1.5
    endloop
  endfacet
  facet normal 0 0 -1
    outer loop
      vertex -61.7146 69.3117 -1.5
      vertex -51.111 -81.2988 -1.5
      vertex -60.3286 -91.5359 -1.5
    endloop
  endfacet
  facet normal 0 0 -1
    outer loop
      vertex -36.1094 -71.4863 -1.5
      vertex -61.7146 69.3117 -1.5
      vertex -28.0985 69.3117 -1.5
    endloop
  endfacet
  facet normal 0 0 -1
    outer loop
      vertex -85.1554 42.895 -1.5
      vertex -82.6362 40.7699 -1.5
      vertex -83.9747 41.4145 -1.5
    endloop
  endfacet
  facet normal -0 0 -1
    outer loop
      vertex -80.1215 48.7674 -1.5
      vertex -83.9747 48.0679 -1.5
      vertex -82.2686 48.8895 -1.5
    endloop
  endfacet
  facet normal 0 0 -1
    outer loop
      vertex -85.5768 44.7412 -1.5
      vertex -82.6362 40.7699 -1.5
      vertex -85.1554 42.895 -1.5
    endloop
  endfacet
  facet normal 0 0 -1
    outer loop
      vertex -82.6362 40.7699 -1.5
      vertex -85.1554 46.5873 -1.5
      vertex -83.9747 48.0679 -1.5
    endloop
  endfacet
  facet normal 0 0 -1
    outer loop
      vertex -82.6362 40.7699 -1.5
      vertex -85.5768 44.7412 -1.5
      vertex -85.1554 46.5873 -1.5
    endloop
  endfacet
  facet normal 0 0 -1
    outer loop
      vertex -61.7146 69.3117 -1.5
      vertex -84.9718 31.9031 -1.5
      vertex -67.9209 63.5854 -1.5
    endloop
  endfacet
  facet normal 0 0 -1
    outer loop
      vertex -67.9209 63.5854 -1.5
      vertex -84.9718 31.9031 -1.5
      vertex -82.6362 40.7699 -1.5
    endloop
  endfacet
  facet normal 0 -0 -1
    outer loop
      vertex -87.5091 14.5164 -1.5
      vertex -61.7146 69.3117 -1.5
      vertex -87.9011 9.04999 -1.5
    endloop
  endfacet
  facet normal 0 -0 -1
    outer loop
      vertex -84.9718 31.9031 -1.5
      vertex -61.7146 69.3117 -1.5
      vertex -87.5091 14.5164 -1.5
    endloop
  endfacet
  facet normal 0 0 -1
    outer loop
      vertex -88.4477 -30.2214 -1.5
      vertex -88.6388 -33.0768 -1.5
      vertex -88.8691 -32.0676 -1.5
    endloop
  endfacet
  facet normal 0 0 -1
    outer loop
      vertex -112.914 -59.2704 -1.5
      vertex -112.106 -45.8192 -1.5
      vertex -112.307 -60.6336 -1.5
    endloop
  endfacet
  facet normal 0 0 -1
    outer loop
      vertex -112.106 -45.8192 -1.5
      vertex -112.914 -59.2704 -1.5
      vertex -113.362 -47.3506 -1.5
    endloop
  endfacet
  facet normal 0 0 1
    outer loop
      vertex -14.7988 -71.3644 1.5
      vertex -12.2438 -71.3644 1.5
      vertex -12.6652 -69.5182 1.5
    endloop
  endfacet
  facet normal 0 0 1
    outer loop
      vertex -15.6488 -69.8921 1.5
      vertex -12.6652 -69.5182 1.5
      vertex -13.8458 -68.0377 1.5
    endloop
  endfacet
  facet normal 0 0 1
    outer loop
      vertex -12.2438 -71.3644 1.5
      vertex -14.7988 -71.3644 1.5
      vertex -12.6652 -73.2106 1.5
    endloop
  endfacet
  facet normal -0 0 1
    outer loop
      vertex -15.6488 -72.8366 1.5
      vertex -12.6652 -73.2106 1.5
      vertex -14.7988 -71.3644 1.5
    endloop
  endfacet
  facet normal 0 0 1
    outer loop
      vertex -15.6488 -69.8921 1.5
      vertex -13.8458 -68.0377 1.5
      vertex -15.552 -67.2161 1.5
    endloop
  endfacet
  facet normal 0 0 1
    outer loop
      vertex -12.6652 -69.5182 1.5
      vertex -15.6488 -69.8921 1.5
      vertex -14.7988 -71.3644 1.5
    endloop
  endfacet
  facet normal 0 0 1
    outer loop
      vertex -15.552 -67.2161 1.5
      vertex -17.3488 -69.8921 1.5
      vertex -15.6488 -69.8921 1.5
    endloop
  endfacet
  facet normal -0 0 1
    outer loop
      vertex -17.4456 -67.2161 1.5
      vertex -17.3488 -69.8921 1.5
      vertex -15.552 -67.2161 1.5
    endloop
  endfacet
  facet normal -0 0 1
    outer loop
      vertex -19.1517 -68.0377 1.5
      vertex -17.3488 -69.8921 1.5
      vertex -17.4456 -67.2161 1.5
    endloop
  endfacet
  facet normal -0 0 1
    outer loop
      vertex -20.3324 -69.5182 1.5
      vertex -17.3488 -69.8921 1.5
      vertex -19.1517 -68.0377 1.5
    endloop
  endfacet
  facet normal 0 0 1
    outer loop
      vertex -12.6652 -73.2106 1.5
      vertex -15.6488 -72.8366 1.5
      vertex -13.8458 -74.6911 1.5
    endloop
  endfacet
  facet normal 0 0 1
    outer loop
      vertex -13.8458 -74.6911 1.5
      vertex -15.6488 -72.8366 1.5
      vertex -15.552 -75.5127 1.5
    endloop
  endfacet
  facet normal -0 0 1
    outer loop
      vertex -17.3488 -72.8366 1.5
      vertex -15.552 -75.5127 1.5
      vertex -15.6488 -72.8366 1.5
    endloop
  endfacet
  facet normal 0 0 1
    outer loop
      vertex -17.3488 -72.8366 1.5
      vertex -17.4456 -75.5127 1.5
      vertex -15.552 -75.5127 1.5
    endloop
  endfacet
  facet normal 0 0 1
    outer loop
      vertex -20.3324 -73.2106 1.5
      vertex -17.3488 -72.8366 1.5
      vertex -18.1988 -71.3644 1.5
    endloop
  endfacet
  facet normal 0 0 1
    outer loop
      vertex -17.3488 -69.8921 1.5
      vertex -20.3324 -69.5182 1.5
      vertex -18.1988 -71.3644 1.5
    endloop
  endfacet
  facet normal 0 0 1
    outer loop
      vertex -17.3488 -72.8366 1.5
      vertex -19.1517 -74.6911 1.5
      vertex -17.4456 -75.5127 1.5
    endloop
  endfacet
  facet normal 0 0 1
    outer loop
      vertex -20.7538 -71.3644 1.5
      vertex -18.1988 -71.3644 1.5
      vertex -20.3324 -69.5182 1.5
    endloop
  endfacet
  facet normal 0 0 1
    outer loop
      vertex -17.3488 -72.8366 1.5
      vertex -20.3324 -73.2106 1.5
      vertex -19.1517 -74.6911 1.5
    endloop
  endfacet
  facet normal 0 0 1
    outer loop
      vertex -18.1988 -71.3644 1.5
      vertex -20.7538 -71.3644 1.5
      vertex -20.3324 -73.2106 1.5
    endloop
  endfacet
  facet normal 0 0 1
    outer loop
      vertex 54.7153 57.3117 1.5
      vertex 65.2647 46.0354 1.5
      vertex 64.8428 47.7854 1.5
    endloop
  endfacet
  facet normal 0 0 1
    outer loop
      vertex 65.2647 46.0354 1.5
      vertex 54.7153 57.3117 1.5
      vertex 64.0191 30.5335 1.5
    endloop
  endfacet
  facet normal -0 0 1
    outer loop
      vertex 16.3586 57.3117 1.5
      vertex 64.0191 30.5335 1.5
      vertex 54.7153 57.3117 1.5
    endloop
  endfacet
  facet normal 0 0 1
    outer loop
      vertex 64.0191 30.5335 1.5
      vertex 58.8828 16.5143 1.5
      vertex 63.6336 23.8466 1.5
    endloop
  endfacet
  facet normal 0 0 1
    outer loop
      vertex 63.5665 13.1958 1.5
      vertex 61.8204 11.4431 1.5
      vertex 62.3858 11.7153 1.5
    endloop
  endfacet
  facet normal 0 0 1
    outer loop
      vertex 63.3496 22.4761 1.5
      vertex 58.8828 16.5143 1.5
      vertex 62.7219 17.9472 1.5
    endloop
  endfacet
  facet normal 0 0 1
    outer loop
      vertex 63.9878 15.042 1.5
      vertex 61.4328 15.042 1.5
      vertex 61.8204 11.4431 1.5
    endloop
  endfacet
  facet normal 0 0 1
    outer loop
      vertex 62.7219 17.9472 1.5
      vertex 60.5828 16.5143 1.5
      vertex 61.4328 15.042 1.5
    endloop
  endfacet
  facet normal 0 0 1
    outer loop
      vertex 62.7219 17.9472 1.5
      vertex 58.8828 16.5143 1.5
      vertex 60.5828 16.5143 1.5
    endloop
  endfacet
  facet normal 0 0 1
    outer loop
      vertex 63.6336 23.8466 1.5
      vertex 58.8828 16.5143 1.5
      vertex 63.3496 22.4761 1.5
    endloop
  endfacet
  facet normal 0 0 1
    outer loop
      vertex 64.0191 30.5335 1.5
      vertex 16.3586 57.3117 1.5
      vertex 58.8828 16.5143 1.5
    endloop
  endfacet
  facet normal 0 0 1
    outer loop
      vertex 61.4328 15.042 1.5
      vertex 63.5665 16.8882 1.5
      vertex 62.7219 17.9472 1.5
    endloop
  endfacet
  facet normal 0 0 1
    outer loop
      vertex 63.5665 16.8882 1.5
      vertex 61.4328 15.042 1.5
      vertex 63.9878 15.042 1.5
    endloop
  endfacet
  facet normal 0 0 1
    outer loop
      vertex 63.9878 15.042 1.5
      vertex 61.8204 11.4431 1.5
      vertex 63.5665 13.1958 1.5
    endloop
  endfacet
  facet normal -0 0 1
    outer loop
      vertex 60.5828 13.5698 1.5
      vertex 61.8204 11.4431 1.5
      vertex 61.4328 15.042 1.5
    endloop
  endfacet
  facet normal -0 0 1
    outer loop
      vertex 58.8828 13.5698 1.5
      vertex 61.8204 11.4431 1.5
      vertex 60.5828 13.5698 1.5
    endloop
  endfacet
  facet normal 0 0 1
    outer loop
      vertex 61.8204 11.4431 1.5
      vertex 58.8828 13.5698 1.5
      vertex 60.8087 4.14293 1.5
    endloop
  endfacet
  facet normal 0 0 1
    outer loop
      vertex 60.8087 4.14293 1.5
      vertex 58.0328 15.042 1.5
      vertex 60.2993 -3.09999 1.5
    endloop
  endfacet
  facet normal 0 0 1
    outer loop
      vertex 58.0328 15.042 1.5
      vertex 60.8087 4.14293 1.5
      vertex 58.8828 13.5698 1.5
    endloop
  endfacet
  facet normal 0 0 1
    outer loop
      vertex 60.8087 -28.1429 1.5
      vertex 62.397 -47.8829 1.5
      vertex 63.3639 -46.5791 1.5
    endloop
  endfacet
  facet normal 0 0 1
    outer loop
      vertex 16.3586 57.3117 1.5
      vertex 60.2993 -3.09999 1.5
      vertex 58.0328 15.042 1.5
    endloop
  endfacet
  facet normal 0 0 1
    outer loop
      vertex 58.8828 16.5143 1.5
      vertex 16.3586 57.3117 1.5
      vertex 58.0328 15.042 1.5
    endloop
  endfacet
  facet normal 0 0 1
    outer loop
      vertex 60.2993 -3.09999 1.5
      vertex 16.3586 57.3117 1.5
      vertex -5.01672 -66.4917 1.5
    endloop
  endfacet
  facet normal 0 0 1
    outer loop
      vertex 60.8087 -28.1429 1.5
      vertex 53.8484 -56.9657 1.5
      vertex 62.397 -47.8829 1.5
    endloop
  endfacet
  facet normal 0 0 1
    outer loop
      vertex 60.2993 -3.09999 1.5
      vertex -5.01672 -66.4917 1.5
      vertex 60.2993 -20.9 1.5
    endloop
  endfacet
  facet normal 0 -0 1
    outer loop
      vertex 4.81644 -69.3117 1.5
      vertex 60.2993 -20.9 1.5
      vertex -5.01672 -66.4917 1.5
    endloop
  endfacet
  facet normal 0 0 1
    outer loop
      vertex 60.2993 -20.9 1.5
      vertex 4.81644 -69.3117 1.5
      vertex 60.8087 -28.1429 1.5
    endloop
  endfacet
  facet normal 0 -0 1
    outer loop
      vertex 26.9714 -81.3117 1.5
      vertex 52.5983 -58.2311 1.5
      vertex 4.81644 -69.3117 1.5
    endloop
  endfacet
  facet normal 0 -0 1
    outer loop
      vertex 52.5983 -58.2311 1.5
      vertex 60.8087 -28.1429 1.5
      vertex 4.81644 -69.3117 1.5
    endloop
  endfacet
  facet normal -0 0 1
    outer loop
      vertex 3.167 65.4914 1.5
      vertex 16.3586 57.3117 1.5
      vertex 12.4105 67.5617 1.5
    endloop
  endfacet
  facet normal -0 0 1
    outer loop
      vertex 5.75037 69.3117 1.5
      vertex 12.4105 67.5617 1.5
      vertex 11.4738 69.3117 1.5
    endloop
  endfacet
  facet normal 0 0 1
    outer loop
      vertex 12.4105 67.5617 1.5
      vertex 5.75037 69.3117 1.5
      vertex 4.017 66.9636 1.5
    endloop
  endfacet
  facet normal 0 0 1
    outer loop
      vertex 3.167 68.4358 1.5
      vertex 5.75037 69.3117 1.5
      vertex 4.96994 70.2903 1.5
    endloop
  endfacet
  facet normal 0 0 1
    outer loop
      vertex 12.4105 67.5617 1.5
      vertex 4.017 66.9636 1.5
      vertex 3.167 65.4914 1.5
    endloop
  endfacet
  facet normal -0 0 1
    outer loop
      vertex 1.467 65.4914 1.5
      vertex 16.3586 57.3117 1.5
      vertex 3.167 65.4914 1.5
    endloop
  endfacet
  facet normal 0 0 1
    outer loop
      vertex 3.167 68.4358 1.5
      vertex 4.96994 70.2903 1.5
      vertex 3.26382 71.1119 1.5
    endloop
  endfacet
  facet normal 0 0 1
    outer loop
      vertex 5.75037 69.3117 1.5
      vertex 3.167 68.4358 1.5
      vertex 4.017 66.9636 1.5
    endloop
  endfacet
  facet normal 0 0 1
    outer loop
      vertex 3.26382 71.1119 1.5
      vertex 1.467 68.4358 1.5
      vertex 3.167 68.4358 1.5
    endloop
  endfacet
  facet normal -0 0 1
    outer loop
      vertex 1.37016 71.1119 1.5
      vertex 1.467 68.4358 1.5
      vertex 3.26382 71.1119 1.5
    endloop
  endfacet
  facet normal -0 0 1
    outer loop
      vertex -0.335938 70.2903 1.5
      vertex 1.467 68.4358 1.5
      vertex 1.37016 71.1119 1.5
    endloop
  endfacet
  facet normal -0 0 1
    outer loop
      vertex -1.11636 69.3117 1.5
      vertex 1.467 68.4358 1.5
      vertex -0.335938 70.2903 1.5
    endloop
  endfacet
  facet normal 0 0 1
    outer loop
      vertex -60.3286 -91.5359 1.5
      vertex -67.6652 -108.197 1.5
      vertex -58.7919 -95.9836 1.5
    endloop
  endfacet
  facet normal 0 0 1
    outer loop
      vertex -36.1094 -71.4863 1.5
      vertex -83.7641 -33.5398 1.5
      vertex -51.111 -81.2988 1.5
    endloop
  endfacet
  facet normal 0 0 1
    outer loop
      vertex -79.6218 44.7412 1.5
      vertex -61.7146 69.3117 1.5
      vertex -67.9209 63.5854 1.5
    endloop
  endfacet
  facet normal 0 0 1
    outer loop
      vertex -51.111 -81.2988 1.5
      vertex -83.7641 -33.5398 1.5
      vertex -60.3286 -91.5359 1.5
    endloop
  endfacet
  facet normal -0 0 1
    outer loop
      vertex -112.307 -60.6336 1.5
      vertex -60.3286 -91.5359 1.5
      vertex -83.7641 -33.5398 1.5
    endloop
  endfacet
  facet normal 0 0 1
    outer loop
      vertex -79.6218 44.7412 1.5
      vertex -67.9209 63.5854 1.5
      vertex -78.9209 52.5854 1.5
    endloop
  endfacet
  facet normal 0 0 1
    outer loop
      vertex -61.7146 69.3117 1.5
      vertex -79.6218 44.7412 1.5
      vertex -87.5091 14.5164 1.5
    endloop
  endfacet
  facet normal 0 0 1
    outer loop
      vertex -84.9718 31.9031 1.5
      vertex -79.6218 44.7412 1.5
      vertex -80.4718 43.2689 1.5
    endloop
  endfacet
  facet normal 0 0 1
    outer loop
      vertex -82.6362 40.7699 1.5
      vertex -80.4718 43.2689 1.5
      vertex -82.1718 43.2689 1.5
    endloop
  endfacet
  facet normal 0 0 1
    outer loop
      vertex -83.8226 36.9969 1.5
      vertex -80.4718 43.2689 1.5
      vertex -82.6362 40.7699 1.5
    endloop
  endfacet
  facet normal 0 -0 1
    outer loop
      vertex -86.0156 -107.258 1.5
      vertex -60.3286 -91.5359 1.5
      vertex -97.5945 -95.7289 1.5
    endloop
  endfacet
  facet normal 0 0 1
    outer loop
      vertex -60.3286 -91.5359 1.5
      vertex -74.4293 -109.079 1.5
      vertex -67.6652 -108.197 1.5
    endloop
  endfacet
  facet normal 0 0 1
    outer loop
      vertex -67.6652 -108.197 1.5
      vertex -74.4293 -109.079 1.5
      vertex -69.5227 -109.112 1.5
    endloop
  endfacet
  facet normal 0 0 1
    outer loop
      vertex -112.307 -60.6336 1.5
      vertex -83.7641 -33.5398 1.5
      vertex -85.4641 -33.5398 1.5
    endloop
  endfacet
  facet normal 0 0 1
    outer loop
      vertex -60.3286 -91.5359 1.5
      vertex -86.0156 -107.258 1.5
      vertex -74.4293 -109.079 1.5
    endloop
  endfacet
  facet normal -0 0 1
    outer loop
      vertex -88.6388 -33.0768 1.5
      vertex -85.4641 -33.5398 1.5
      vertex -86.3141 -32.0676 1.5
    endloop
  endfacet
  facet normal 0 0 1
    outer loop
      vertex -85.4641 -30.5954 1.5
      vertex -88.4477 -30.2214 1.5
      vertex -86.3141 -32.0676 1.5
    endloop
  endfacet
  facet normal 0 0 1
    outer loop
      vertex -88.8691 -32.0676 1.5
      vertex -86.3141 -32.0676 1.5
      vertex -88.4477 -30.2214 1.5
    endloop
  endfacet
  facet normal 0 0 1
    outer loop
      vertex -102.771 -37.9856 1.5
      vertex -85.4641 -33.5398 1.5
      vertex -88.6388 -33.0768 1.5
    endloop
  endfacet
  facet normal 0 0 1
    outer loop
      vertex -74.4293 -109.079 1.5
      vertex -86.0156 -107.258 1.5
      vertex -83.7135 -108.424 1.5
    endloop
  endfacet
  facet normal 0 0 1
    outer loop
      vertex -60.3286 -91.5359 1.5
      vertex -112.307 -60.6336 1.5
      vertex -97.5945 -95.7289 1.5
    endloop
  endfacet
  facet normal 0 0 1
    outer loop
      vertex -85.4641 -33.5398 1.5
      vertex -102.771 -37.9856 1.5
      vertex -112.307 -60.6336 1.5
    endloop
  endfacet
  facet normal -0 -0 1
    outer loop
      vertex -103.633 -94.9341 1.5
      vertex -97.5945 -95.7289 1.5
      vertex -112.307 -60.6336 1.5
    endloop
  endfacet
  facet normal 0 0 1
    outer loop
      vertex -112.307 -60.6336 1.5
      vertex -102.771 -37.9856 1.5
      vertex -112.106 -45.8192 1.5
    endloop
  endfacet
  facet normal 0 0 1
    outer loop
      vertex -97.5945 -95.7289 1.5
      vertex -103.633 -94.9341 1.5
      vertex -99.0746 -95.8717 1.5
    endloop
  endfacet
  facet normal -0 0 1
    outer loop
      vertex -118.111 -79.4381 1.5
      vertex -103.633 -94.9341 1.5
      vertex -112.307 -60.6336 1.5
    endloop
  endfacet
  facet normal 0 0 1
    outer loop
      vertex -118.111 -79.4381 1.5
      vertex -112.307 -60.6336 1.5
      vertex -117.509 -67.292 1.5
    endloop
  endfacet
  facet normal 0 0 1
    outer loop
      vertex -103.633 -94.9341 1.5
      vertex -118.111 -79.4381 1.5
      vertex -117.34 -83.3117 1.5
    endloop
  endfacet
  facet normal 0 -0 1
    outer loop
      vertex -118.111 -79.4381 1.5
      vertex -117.509 -67.292 1.5
      vertex -118.464 -69.5927 1.5
    endloop
  endfacet
  facet normal 0 0 1
    outer loop
      vertex -112.106 -45.8192 1.5
      vertex -112.914 -59.2704 1.5
      vertex -112.307 -60.6336 1.5
    endloop
  endfacet
  facet normal 0 -0 1
    outer loop
      vertex -112.914 -59.2704 1.5
      vertex -112.106 -45.8192 1.5
      vertex -113.362 -47.3506 1.5
    endloop
  endfacet
  facet normal 0 0 1
    outer loop
      vertex -86.3141 -32.0676 1.5
      vertex -88.8691 -32.0676 1.5
      vertex -88.6388 -33.0768 1.5
    endloop
  endfacet
  facet normal -0 0 1
    outer loop
      vertex -85.5609 -27.9193 1.5
      vertex -85.4641 -30.5954 1.5
      vertex -85.5532 -27.9193 1.5
    endloop
  endfacet
  facet normal -0 0 1
    outer loop
      vertex -87.267 -28.7409 1.5
      vertex -85.4641 -30.5954 1.5
      vertex -85.5609 -27.9193 1.5
    endloop
  endfacet
  facet normal -0 0 1
    outer loop
      vertex -88.4477 -30.2214 1.5
      vertex -85.4641 -30.5954 1.5
      vertex -87.267 -28.7409 1.5
    endloop
  endfacet
  facet normal 0 0 1
    outer loop
      vertex -61.7146 69.3117 1.5
      vertex -87.5091 14.5164 1.5
      vertex -87.9011 9.04999 1.5
    endloop
  endfacet
  facet normal 0 0 1
    outer loop
      vertex -80.4718 43.2689 1.5
      vertex -83.8226 36.9969 1.5
      vertex -84.9718 31.9031 1.5
    endloop
  endfacet
  facet normal 0 0 1
    outer loop
      vertex -79.6218 44.7412 1.5
      vertex -84.9718 31.9031 1.5
      vertex -87.5091 14.5164 1.5
    endloop
  endfacet
  facet normal 0 0 1
    outer loop
      vertex -61.7146 69.3117 1.5
      vertex -87.9011 9.04999 1.5
      vertex -82.9141 -32.0676 1.5
    endloop
  endfacet
  facet normal 0 0 1
    outer loop
      vertex -83.7641 -30.5954 1.5
      vertex -85.5532 -27.9193 1.5
      vertex -85.4641 -30.5954 1.5
    endloop
  endfacet
  facet normal -0 0 1
    outer loop
      vertex -87.9011 -9.04999 1.5
      vertex -82.9141 -32.0676 1.5
      vertex -87.9011 9.04999 1.5
    endloop
  endfacet
  facet normal -0 -0 1
    outer loop
      vertex -87.5091 -14.5164 1.5
      vertex -82.9141 -32.0676 1.5
      vertex -87.9011 -9.04999 1.5
    endloop
  endfacet
  facet normal 0 0 1
    outer loop
      vertex -83.7641 -30.5954 1.5
      vertex -87.5091 -14.5164 1.5
      vertex -85.5532 -27.9193 1.5
    endloop
  endfacet
  facet normal 0 0 1
    outer loop
      vertex -82.9141 -32.0676 1.5
      vertex -87.5091 -14.5164 1.5
      vertex -83.7641 -30.5954 1.5
    endloop
  endfacet
  facet normal 0 0 1
    outer loop
      vertex -85.1554 42.895 1.5
      vertex -82.1718 43.2689 1.5
      vertex -83.0218 44.7412 1.5
    endloop
  endfacet
  facet normal 0 0 1
    outer loop
      vertex -82.1718 46.2134 1.5
      vertex -85.1554 46.5873 1.5
      vertex -83.0218 44.7412 1.5
    endloop
  endfacet
  facet normal 0 0 1
    outer loop
      vertex -85.5768 44.7412 1.5
      vertex -83.0218 44.7412 1.5
      vertex -85.1554 46.5873 1.5
    endloop
  endfacet
  facet normal 0 -0 1
    outer loop
      vertex -85.1554 42.895 1.5
      vertex -83.0218 44.7412 1.5
      vertex -85.5768 44.7412 1.5
    endloop
  endfacet
  facet normal 0 0 1
    outer loop
      vertex -82.1718 43.2689 1.5
      vertex -83.9747 41.4145 1.5
      vertex -82.6362 40.7699 1.5
    endloop
  endfacet
  facet normal 0 0 1
    outer loop
      vertex -82.1718 43.2689 1.5
      vertex -85.1554 42.895 1.5
      vertex -83.9747 41.4145 1.5
    endloop
  endfacet
  facet normal -0 0 1
    outer loop
      vertex -80.1215 48.7674 1.5
      vertex -79.6218 44.7412 1.5
      vertex -78.9209 52.5854 1.5
    endloop
  endfacet
  facet normal 0 0 1
    outer loop
      vertex -80.4718 46.2134 1.5
      vertex -80.1215 48.7674 1.5
      vertex -80.3749 48.8895 1.5
    endloop
  endfacet
  facet normal 0 0 1
    outer loop
      vertex -80.1215 48.7674 1.5
      vertex -80.4718 46.2134 1.5
      vertex -79.6218 44.7412 1.5
    endloop
  endfacet
  facet normal 0 0 1
    outer loop
      vertex -80.3749 48.8895 1.5
      vertex -82.1718 46.2134 1.5
      vertex -80.4718 46.2134 1.5
    endloop
  endfacet
  facet normal -0 0 1
    outer loop
      vertex -82.2686 48.8895 1.5
      vertex -82.1718 46.2134 1.5
      vertex -80.3749 48.8895 1.5
    endloop
  endfacet
  facet normal -0 0 1
    outer loop
      vertex -83.9747 48.0679 1.5
      vertex -82.1718 46.2134 1.5
      vertex -82.2686 48.8895 1.5
    endloop
  endfacet
  facet normal -0 0 1
    outer loop
      vertex -85.1554 46.5873 1.5
      vertex -82.1718 46.2134 1.5
      vertex -83.9747 48.0679 1.5
    endloop
  endfacet
  facet normal 0 0 1
    outer loop
      vertex 52.5983 -58.2311 1.5
      vertex 26.9714 -81.3117 1.5
      vertex 39.151 -81.3117 1.5
    endloop
  endfacet
  facet normal 0 0 1
    outer loop
      vertex -28.0985 69.3117 1.5
      vertex 16.3586 57.3117 1.5
      vertex 1.467 65.4914 1.5
    endloop
  endfacet
  facet normal 0 0 1
    outer loop
      vertex -5.55006 69.3117 1.5
      vertex 1.467 65.4914 1.5
      vertex 0.617003 66.9636 1.5
    endloop
  endfacet
  facet normal 0 0 1
    outer loop
      vertex 1.467 68.4358 1.5
      vertex -1.11636 69.3117 1.5
      vertex 0.617003 66.9636 1.5
    endloop
  endfacet
  facet normal -0 0 1
    outer loop
      vertex -5.55006 69.3117 1.5
      vertex 0.617003 66.9636 1.5
      vertex -1.11636 69.3117 1.5
    endloop
  endfacet
  facet normal 0 0 1
    outer loop
      vertex 60.8087 -28.1429 1.5
      vertex 52.5983 -58.2311 1.5
      vertex 53.8484 -56.9657 1.5
    endloop
  endfacet
  facet normal 0 0 1
    outer loop
      vertex 1.467 65.4914 1.5
      vertex -5.55006 69.3117 1.5
      vertex -28.0985 69.3117 1.5
    endloop
  endfacet
  facet normal 0 0 1
    outer loop
      vertex -28.0985 69.3117 1.5
      vertex -5.55006 69.3117 1.5
      vertex -9.98744 72.1317 1.5
    endloop
  endfacet
  facet normal 0 0 1
    outer loop
      vertex 16.3586 57.3117 1.5
      vertex -28.0985 69.3117 1.5
      vertex -16.3389 -66.4917 1.5
    endloop
  endfacet
  facet normal 0 0 1
    outer loop
      vertex 16.3586 57.3117 1.5
      vertex -16.3389 -66.4917 1.5
      vertex -5.01672 -66.4917 1.5
    endloop
  endfacet
  facet normal 0 0 1
    outer loop
      vertex -28.0985 69.3117 1.5
      vertex -9.98744 72.1317 1.5
      vertex -26.5565 72.1317 1.5
    endloop
  endfacet
  facet normal -0 0 1
    outer loop
      vertex -82.9141 -32.0676 1.5
      vertex -16.3389 -66.4917 1.5
      vertex -28.0985 69.3117 1.5
    endloop
  endfacet
  facet normal 0 0 1
    outer loop
      vertex -16.3389 -66.4917 1.5
      vertex -36.1094 -71.4863 1.5
      vertex -23.154 -69.3117 1.5
    endloop
  endfacet
  facet normal 0 0 1
    outer loop
      vertex -82.9141 -32.0676 1.5
      vertex -28.0985 69.3117 1.5
      vertex -61.7146 69.3117 1.5
    endloop
  endfacet
  facet normal 0 0 1
    outer loop
      vertex -16.3389 -66.4917 1.5
      vertex -82.9141 -32.0676 1.5
      vertex -36.1094 -71.4863 1.5
    endloop
  endfacet
  facet normal 0 -0 1
    outer loop
      vertex -37.5787 -74.3328 1.5
      vertex -36.1094 -71.4863 1.5
      vertex -51.111 -81.2988 1.5
    endloop
  endfacet
  facet normal 0 0 1
    outer loop
      vertex -36.1094 -71.4863 1.5
      vertex -37.5787 -74.3328 1.5
      vertex -36.3579 -73.5004 1.5
    endloop
  endfacet
  facet normal -0 0 1
    outer loop
      vertex -83.7641 -33.5398 1.5
      vertex -36.1094 -71.4863 1.5
      vertex -82.9141 -32.0676 1.5
    endloop
  endfacet
  facet normal 0.781847 -0.623471 0
    outer loop
      vertex -13.8458 -74.6911 1.5
      vertex -12.6652 -73.2106 -1.5
      vertex -12.6652 -73.2106 1.5
    endloop
  endfacet
  facet normal 0.781847 -0.623471 0
    outer loop
      vertex -12.6652 -73.2106 -1.5
      vertex -13.8458 -74.6911 1.5
      vertex -13.8458 -74.6911 -1.5
    endloop
  endfacet
  facet normal 0.974926 -0.222529 0
    outer loop
      vertex -12.6652 -73.2106 1.5
      vertex -12.2438 -71.3644 -1.5
      vertex -12.2438 -71.3644 1.5
    endloop
  endfacet
  facet normal 0.974926 -0.222529 0
    outer loop
      vertex -12.2438 -71.3644 -1.5
      vertex -12.6652 -73.2106 1.5
      vertex -12.6652 -73.2106 -1.5
    endloop
  endfacet
  facet normal 0.974926 0.222529 0
    outer loop
      vertex -12.2438 -71.3644 1.5
      vertex -12.6652 -69.5182 -1.5
      vertex -12.6652 -69.5182 1.5
    endloop
  endfacet
  facet normal 0.974926 0.222529 0
    outer loop
      vertex -12.6652 -69.5182 -1.5
      vertex -12.2438 -71.3644 1.5
      vertex -12.2438 -71.3644 -1.5
    endloop
  endfacet
  facet normal 0.781847 0.623471 0
    outer loop
      vertex -12.6652 -69.5182 1.5
      vertex -13.8458 -68.0377 -1.5
      vertex -13.8458 -68.0377 1.5
    endloop
  endfacet
  facet normal 0.781847 0.623471 0
    outer loop
      vertex -13.8458 -68.0377 -1.5
      vertex -12.6652 -69.5182 1.5
      vertex -12.6652 -69.5182 -1.5
    endloop
  endfacet
  facet normal 0.433857 0.900982 -0
    outer loop
      vertex -13.8458 -68.0377 -1.5
      vertex -15.552 -67.2161 1.5
      vertex -13.8458 -68.0377 1.5
    endloop
  endfacet
  facet normal 0.433857 0.900982 0
    outer loop
      vertex -15.552 -67.2161 1.5
      vertex -13.8458 -68.0377 -1.5
      vertex -15.552 -67.2161 -1.5
    endloop
  endfacet
  facet normal 0 1 -0
    outer loop
      vertex -15.552 -67.2161 -1.5
      vertex -17.4456 -67.2161 1.5
      vertex -15.552 -67.2161 1.5
    endloop
  endfacet
  facet normal 0 1 0
    outer loop
      vertex -17.4456 -67.2161 1.5
      vertex -15.552 -67.2161 -1.5
      vertex -17.4456 -67.2161 -1.5
    endloop
  endfacet
  facet normal -0.433878 0.900972 0
    outer loop
      vertex -17.4456 -67.2161 -1.5
      vertex -19.1517 -68.0377 1.5
      vertex -17.4456 -67.2161 1.5
    endloop
  endfacet
  facet normal -0.433878 0.900972 0
    outer loop
      vertex -19.1517 -68.0377 1.5
      vertex -17.4456 -67.2161 -1.5
      vertex -19.1517 -68.0377 -1.5
    endloop
  endfacet
  facet normal -0.781821 0.623503 0
    outer loop
      vertex -20.3324 -69.5182 -1.5
      vertex -19.1517 -68.0377 1.5
      vertex -19.1517 -68.0377 -1.5
    endloop
  endfacet
  facet normal -0.781821 0.623503 0
    outer loop
      vertex -19.1517 -68.0377 1.5
      vertex -20.3324 -69.5182 -1.5
      vertex -20.3324 -69.5182 1.5
    endloop
  endfacet
  facet normal -0.974926 0.222529 0
    outer loop
      vertex -20.7538 -71.3644 -1.5
      vertex -20.3324 -69.5182 1.5
      vertex -20.3324 -69.5182 -1.5
    endloop
  endfacet
  facet normal -0.974926 0.222529 0
    outer loop
      vertex -20.3324 -69.5182 1.5
      vertex -20.7538 -71.3644 -1.5
      vertex -20.7538 -71.3644 1.5
    endloop
  endfacet
  facet normal -0.974926 -0.222529 0
    outer loop
      vertex -20.3324 -73.2106 -1.5
      vertex -20.7538 -71.3644 1.5
      vertex -20.7538 -71.3644 -1.5
    endloop
  endfacet
  facet normal -0.974926 -0.222529 0
    outer loop
      vertex -20.7538 -71.3644 1.5
      vertex -20.3324 -73.2106 -1.5
      vertex -20.3324 -73.2106 1.5
    endloop
  endfacet
  facet normal -0.781821 -0.623503 0
    outer loop
      vertex -19.1517 -74.6911 -1.5
      vertex -20.3324 -73.2106 1.5
      vertex -20.3324 -73.2106 -1.5
    endloop
  endfacet
  facet normal -0.781821 -0.623503 0
    outer loop
      vertex -20.3324 -73.2106 1.5
      vertex -19.1517 -74.6911 -1.5
      vertex -19.1517 -74.6911 1.5
    endloop
  endfacet
  facet normal -0.433878 -0.900972 0
    outer loop
      vertex -19.1517 -74.6911 -1.5
      vertex -17.4456 -75.5127 1.5
      vertex -19.1517 -74.6911 1.5
    endloop
  endfacet
  facet normal -0.433878 -0.900972 -0
    outer loop
      vertex -17.4456 -75.5127 1.5
      vertex -19.1517 -74.6911 -1.5
      vertex -17.4456 -75.5127 -1.5
    endloop
  endfacet
  facet normal 0 -1 0
    outer loop
      vertex -17.4456 -75.5127 -1.5
      vertex -15.552 -75.5127 1.5
      vertex -17.4456 -75.5127 1.5
    endloop
  endfacet
  facet normal 0 -1 -0
    outer loop
      vertex -15.552 -75.5127 1.5
      vertex -17.4456 -75.5127 -1.5
      vertex -15.552 -75.5127 -1.5
    endloop
  endfacet
  facet normal 0.433857 -0.900982 0
    outer loop
      vertex -15.552 -75.5127 -1.5
      vertex -13.8458 -74.6911 1.5
      vertex -15.552 -75.5127 1.5
    endloop
  endfacet
  facet normal 0.433857 -0.900982 0
    outer loop
      vertex -13.8458 -74.6911 1.5
      vertex -15.552 -75.5127 -1.5
      vertex -13.8458 -74.6911 -1.5
    endloop
  endfacet
  facet normal 0.945176 0.326562 0
    outer loop
      vertex -58.7919 -95.9836 1.5
      vertex -60.3286 -91.5359 -1.5
      vertex -60.3286 -91.5359 1.5
    endloop
  endfacet
  facet normal 0.945176 0.326562 0
    outer loop
      vertex -60.3286 -91.5359 -1.5
      vertex -58.7919 -95.9836 1.5
      vertex -58.7919 -95.9836 -1.5
    endloop
  endfacet
  facet normal 0.743142 -0.669134 0
    outer loop
      vertex -60.3286 -91.5359 1.5
      vertex -51.111 -81.2988 -1.5
      vertex -51.111 -81.2988 1.5
    endloop
  endfacet
  facet normal 0.743142 -0.669134 0
    outer loop
      vertex -51.111 -81.2988 -1.5
      vertex -60.3286 -91.5359 1.5
      vertex -60.3286 -91.5359 -1.5
    endloop
  endfacet
  facet normal 0.457687 -0.889113 0
    outer loop
      vertex -51.111 -81.2988 -1.5
      vertex -37.5787 -74.3328 1.5
      vertex -51.111 -81.2988 1.5
    endloop
  endfacet
  facet normal 0.457687 -0.889113 0
    outer loop
      vertex -37.5787 -74.3328 1.5
      vertex -51.111 -81.2988 -1.5
      vertex -37.5787 -74.3328 -1.5
    endloop
  endfacet
  facet normal 0.563354 -0.826216 0
    outer loop
      vertex -37.5787 -74.3328 -1.5
      vertex -36.3579 -73.5004 1.5
      vertex -37.5787 -74.3328 1.5
    endloop
  endfacet
  facet normal 0.563354 -0.826216 0
    outer loop
      vertex -36.3579 -73.5004 1.5
      vertex -37.5787 -74.3328 -1.5
      vertex -36.3579 -73.5004 -1.5
    endloop
  endfacet
  facet normal 0.992474 -0.122452 0
    outer loop
      vertex -36.3579 -73.5004 1.5
      vertex -36.1094 -71.4863 -1.5
      vertex -36.1094 -71.4863 1.5
    endloop
  endfacet
  facet normal 0.992474 -0.122452 0
    outer loop
      vertex -36.1094 -71.4863 -1.5
      vertex -36.3579 -73.5004 1.5
      vertex -36.3579 -73.5004 -1.5
    endloop
  endfacet
  facet normal 0.165537 -0.986204 0
    outer loop
      vertex -36.1094 -71.4863 -1.5
      vertex -23.154 -69.3117 1.5
      vertex -36.1094 -71.4863 1.5
    endloop
  endfacet
  facet normal 0.165537 -0.986204 0
    outer loop
      vertex -23.154 -69.3117 1.5
      vertex -36.1094 -71.4863 -1.5
      vertex -23.154 -69.3117 -1.5
    endloop
  endfacet
  facet normal 0.382347 -0.924019 0
    outer loop
      vertex -23.154 -69.3117 -1.5
      vertex -16.3389 -66.4917 1.5
      vertex -23.154 -69.3117 1.5
    endloop
  endfacet
  facet normal 0.382347 -0.924019 0
    outer loop
      vertex -16.3389 -66.4917 1.5
      vertex -23.154 -69.3117 -1.5
      vertex -16.3389 -66.4917 -1.5
    endloop
  endfacet
  facet normal 0 -1 0
    outer loop
      vertex -16.3389 -66.4917 -1.5
      vertex -5.01672 -66.4917 1.5
      vertex -16.3389 -66.4917 1.5
    endloop
  endfacet
  facet normal 0 -1 -0
    outer loop
      vertex -5.01672 -66.4917 1.5
      vertex -16.3389 -66.4917 -1.5
      vertex -5.01672 -66.4917 -1.5
    endloop
  endfacet
  facet normal -0.275672 -0.961252 0
    outer loop
      vertex -5.01672 -66.4917 -1.5
      vertex 4.81644 -69.3117 1.5
      vertex -5.01672 -66.4917 1.5
    endloop
  endfacet
  facet normal -0.275672 -0.961252 -0
    outer loop
      vertex 4.81644 -69.3117 1.5
      vertex -5.01672 -66.4917 -1.5
      vertex 4.81644 -69.3117 -1.5
    endloop
  endfacet
  facet normal -0.476265 -0.879302 0
    outer loop
      vertex 4.81644 -69.3117 -1.5
      vertex 26.9714 -81.3117 1.5
      vertex 4.81644 -69.3117 1.5
    endloop
  endfacet
  facet normal -0.476265 -0.879302 -0
    outer loop
      vertex 26.9714 -81.3117 1.5
      vertex 4.81644 -69.3117 -1.5
      vertex 26.9714 -81.3117 -1.5
    endloop
  endfacet
  facet normal 0 -1 0
    outer loop
      vertex 26.9714 -81.3117 -1.5
      vertex 39.151 -81.3117 1.5
      vertex 26.9714 -81.3117 1.5
    endloop
  endfacet
  facet normal 0 -1 -0
    outer loop
      vertex 39.151 -81.3117 1.5
      vertex 26.9714 -81.3117 -1.5
      vertex 39.151 -81.3117 -1.5
    endloop
  endfacet
  facet normal 0.864046 -0.503413 0
    outer loop
      vertex 39.151 -81.3117 1.5
      vertex 52.5983 -58.2311 -1.5
      vertex 52.5983 -58.2311 1.5
    endloop
  endfacet
  facet normal 0.864046 -0.503413 0
    outer loop
      vertex 52.5983 -58.2311 -1.5
      vertex 39.151 -81.3117 1.5
      vertex 39.151 -81.3117 -1.5
    endloop
  endfacet
  facet normal 0.711394 -0.702793 0
    outer loop
      vertex 52.5983 -58.2311 1.5
      vertex 53.8484 -56.9657 -1.5
      vertex 53.8484 -56.9657 1.5
    endloop
  endfacet
  facet normal 0.711394 -0.702793 0
    outer loop
      vertex 53.8484 -56.9657 -1.5
      vertex 52.5983 -58.2311 1.5
      vertex 52.5983 -58.2311 -1.5
    endloop
  endfacet
  facet normal 0.728197 -0.685368 0
    outer loop
      vertex 53.8484 -56.9657 1.5
      vertex 62.397 -47.8829 -1.5
      vertex 62.397 -47.8829 1.5
    endloop
  endfacet
  facet normal 0.728197 -0.685368 0
    outer loop
      vertex 62.397 -47.8829 -1.5
      vertex 53.8484 -56.9657 1.5
      vertex 53.8484 -56.9657 -1.5
    endloop
  endfacet
  facet normal 0.803226 -0.595674 0
    outer loop
      vertex 62.397 -47.8829 1.5
      vertex 63.3639 -46.5791 -1.5
      vertex 63.3639 -46.5791 1.5
    endloop
  endfacet
  facet normal 0.803226 -0.595674 0
    outer loop
      vertex 63.3639 -46.5791 -1.5
      vertex 62.397 -47.8829 1.5
      vertex 62.397 -47.8829 -1.5
    endloop
  endfacet
  facet normal 0.990532 0.137285 0
    outer loop
      vertex 63.3639 -46.5791 1.5
      vertex 60.8087 -28.1429 -1.5
      vertex 60.8087 -28.1429 1.5
    endloop
  endfacet
  facet normal 0.990532 0.137285 0
    outer loop
      vertex 60.8087 -28.1429 -1.5
      vertex 63.3639 -46.5791 1.5
      vertex 63.3639 -46.5791 -1.5
    endloop
  endfacet
  facet normal 0.997536 0.0701576 0
    outer loop
      vertex 60.8087 -28.1429 1.5
      vertex 60.2993 -20.9 -1.5
      vertex 60.2993 -20.9 1.5
    endloop
  endfacet
  facet normal 0.997536 0.0701576 0
    outer loop
      vertex 60.2993 -20.9 -1.5
      vertex 60.8087 -28.1429 1.5
      vertex 60.8087 -28.1429 -1.5
    endloop
  endfacet
  facet normal 1 -0 0
    outer loop
      vertex 60.2993 -20.9 1.5
      vertex 60.2993 -3.09999 -1.5
      vertex 60.2993 -3.09999 1.5
    endloop
  endfacet
  facet normal 1 0 0
    outer loop
      vertex 60.2993 -3.09999 -1.5
      vertex 60.2993 -20.9 1.5
      vertex 60.2993 -20.9 -1.5
    endloop
  endfacet
  facet normal 0.997536 -0.0701575 0
    outer loop
      vertex 60.2993 -3.09999 1.5
      vertex 60.8087 4.14293 -1.5
      vertex 60.8087 4.14293 1.5
    endloop
  endfacet
  facet normal 0.997536 -0.0701575 0
    outer loop
      vertex 60.8087 4.14293 -1.5
      vertex 60.2993 -3.09999 1.5
      vertex 60.2993 -3.09999 -1.5
    endloop
  endfacet
  facet normal 0.990533 -0.137274 0
    outer loop
      vertex 60.8087 4.14293 1.5
      vertex 61.8204 11.4431 -1.5
      vertex 61.8204 11.4431 1.5
    endloop
  endfacet
  facet normal 0.990533 -0.137274 0
    outer loop
      vertex 61.8204 11.4431 -1.5
      vertex 60.8087 4.14293 1.5
      vertex 60.8087 4.14293 -1.5
    endloop
  endfacet
  facet normal 0.433777 -0.90102 0
    outer loop
      vertex 61.8204 11.4431 -1.5
      vertex 62.3858 11.7153 1.5
      vertex 61.8204 11.4431 1.5
    endloop
  endfacet
  facet normal 0.433777 -0.90102 0
    outer loop
      vertex 62.3858 11.7153 1.5
      vertex 61.8204 11.4431 -1.5
      vertex 62.3858 11.7153 -1.5
    endloop
  endfacet
  facet normal 0.781821 -0.623503 0
    outer loop
      vertex 62.3858 11.7153 1.5
      vertex 63.5665 13.1958 -1.5
      vertex 63.5665 13.1958 1.5
    endloop
  endfacet
  facet normal 0.781821 -0.623503 0
    outer loop
      vertex 63.5665 13.1958 -1.5
      vertex 62.3858 11.7153 1.5
      vertex 62.3858 11.7153 -1.5
    endloop
  endfacet
  facet normal 0.974937 -0.222479 0
    outer loop
      vertex 63.5665 13.1958 1.5
      vertex 63.9878 15.042 -1.5
      vertex 63.9878 15.042 1.5
    endloop
  endfacet
  facet normal 0.974937 -0.222479 0
    outer loop
      vertex 63.9878 15.042 -1.5
      vertex 63.5665 13.1958 1.5
      vertex 63.5665 13.1958 -1.5
    endloop
  endfacet
  facet normal 0.974937 0.222479 0
    outer loop
      vertex 63.9878 15.042 1.5
      vertex 63.5665 16.8882 -1.5
      vertex 63.5665 16.8882 1.5
    endloop
  endfacet
  facet normal 0.974937 0.222479 0
    outer loop
      vertex 63.5665 16.8882 -1.5
      vertex 63.9878 15.042 1.5
      vertex 63.9878 15.042 -1.5
    endloop
  endfacet
  facet normal 0.781804 0.623524 0
    outer loop
      vertex 63.5665 16.8882 1.5
      vertex 62.7219 17.9472 -1.5
      vertex 62.7219 17.9472 1.5
    endloop
  endfacet
  facet normal 0.781804 0.623524 0
    outer loop
      vertex 62.7219 17.9472 -1.5
      vertex 63.5665 16.8882 1.5
      vertex 63.5665 16.8882 -1.5
    endloop
  endfacet
  facet normal 0.990531 -0.137286 0
    outer loop
      vertex 62.7219 17.9472 1.5
      vertex 63.3496 22.4761 -1.5
      vertex 63.3496 22.4761 1.5
    endloop
  endfacet
  facet normal 0.990531 -0.137286 0
    outer loop
      vertex 63.3496 22.4761 -1.5
      vertex 62.7219 17.9472 1.5
      vertex 62.7219 17.9472 -1.5
    endloop
  endfacet
  facet normal 0.979197 -0.202913 0
    outer loop
      vertex 63.3496 22.4761 1.5
      vertex 63.6336 23.8466 -1.5
      vertex 63.6336 23.8466 1.5
    endloop
  endfacet
  facet normal 0.979197 -0.202913 0
    outer loop
      vertex 63.6336 23.8466 -1.5
      vertex 63.3496 22.4761 1.5
      vertex 63.3496 22.4761 -1.5
    endloop
  endfacet
  facet normal 0.998342 -0.0575545 0
    outer loop
      vertex 63.6336 23.8466 1.5
      vertex 64.0191 30.5335 -1.5
      vertex 64.0191 30.5335 1.5
    endloop
  endfacet
  facet normal 0.998342 -0.0575545 0
    outer loop
      vertex 64.0191 30.5335 -1.5
      vertex 63.6336 23.8466 1.5
      vertex 63.6336 23.8466 -1.5
    endloop
  endfacet
  facet normal 0.996787 -0.0800933 0
    outer loop
      vertex 64.0191 30.5335 1.5
      vertex 65.2647 46.0354 -1.5
      vertex 65.2647 46.0354 1.5
    endloop
  endfacet
  facet normal 0.996787 -0.0800933 0
    outer loop
      vertex 65.2647 46.0354 -1.5
      vertex 64.0191 30.5335 1.5
      vertex 64.0191 30.5335 -1.5
    endloop
  endfacet
  facet normal 0.972147 0.234371 0
    outer loop
      vertex 65.2647 46.0354 1.5
      vertex 64.8428 47.7854 -1.5
      vertex 64.8428 47.7854 1.5
    endloop
  endfacet
  facet normal 0.972147 0.234371 0
    outer loop
      vertex 64.8428 47.7854 -1.5
      vertex 65.2647 46.0354 1.5
      vertex 65.2647 46.0354 -1.5
    endloop
  endfacet
  facet normal 0.685156 0.728396 -0
    outer loop
      vertex 64.8428 47.7854 -1.5
      vertex 54.7153 57.3117 1.5
      vertex 64.8428 47.7854 1.5
    endloop
  endfacet
  facet normal 0.685156 0.728396 0
    outer loop
      vertex 54.7153 57.3117 1.5
      vertex 64.8428 47.7854 -1.5
      vertex 54.7153 57.3117 -1.5
    endloop
  endfacet
  facet normal 0 1 -0
    outer loop
      vertex 54.7153 57.3117 -1.5
      vertex 16.3586 57.3117 1.5
      vertex 54.7153 57.3117 1.5
    endloop
  endfacet
  facet normal 0 1 0
    outer loop
      vertex 16.3586 57.3117 1.5
      vertex 54.7153 57.3117 -1.5
      vertex 16.3586 57.3117 -1.5
    endloop
  endfacet
  facet normal 0.933169 0.359438 0
    outer loop
      vertex 16.3586 57.3117 1.5
      vertex 12.4105 67.5617 -1.5
      vertex 12.4105 67.5617 1.5
    endloop
  endfacet
  facet normal 0.933169 0.359438 0
    outer loop
      vertex 12.4105 67.5617 -1.5
      vertex 16.3586 57.3117 1.5
      vertex 16.3586 57.3117 -1.5
    endloop
  endfacet
  facet normal 0.881648 0.471908 0
    outer loop
      vertex 12.4105 67.5617 1.5
      vertex 11.4738 69.3117 -1.5
      vertex 11.4738 69.3117 1.5
    endloop
  endfacet
  facet normal 0.881648 0.471908 0
    outer loop
      vertex 11.4738 69.3117 -1.5
      vertex 12.4105 67.5617 1.5
      vertex 12.4105 67.5617 -1.5
    endloop
  endfacet
  facet normal 0 1 -0
    outer loop
      vertex 11.4738 69.3117 -1.5
      vertex 5.75037 69.3117 1.5
      vertex 11.4738 69.3117 1.5
    endloop
  endfacet
  facet normal 0 1 0
    outer loop
      vertex 5.75037 69.3117 1.5
      vertex 11.4738 69.3117 -1.5
      vertex 5.75037 69.3117 -1.5
    endloop
  endfacet
  facet normal 0.781823 0.623501 0
    outer loop
      vertex 5.75037 69.3117 1.5
      vertex 4.96994 70.2903 -1.5
      vertex 4.96994 70.2903 1.5
    endloop
  endfacet
  facet normal 0.781823 0.623501 0
    outer loop
      vertex 4.96994 70.2903 -1.5
      vertex 5.75037 69.3117 1.5
      vertex 5.75037 69.3117 -1.5
    endloop
  endfacet
  facet normal 0.433873 0.900974 -0
    outer loop
      vertex 4.96994 70.2903 -1.5
      vertex 3.26382 71.1119 1.5
      vertex 4.96994 70.2903 1.5
    endloop
  endfacet
  facet normal 0.433873 0.900974 0
    outer loop
      vertex 3.26382 71.1119 1.5
      vertex 4.96994 70.2903 -1.5
      vertex 3.26382 71.1119 -1.5
    endloop
  endfacet
  facet normal 0 1 -0
    outer loop
      vertex 3.26382 71.1119 -1.5
      vertex 1.37016 71.1119 1.5
      vertex 3.26382 71.1119 1.5
    endloop
  endfacet
  facet normal 0 1 0
    outer loop
      vertex 1.37016 71.1119 1.5
      vertex 3.26382 71.1119 -1.5
      vertex 1.37016 71.1119 -1.5
    endloop
  endfacet
  facet normal -0.433878 0.900972 0
    outer loop
      vertex 1.37016 71.1119 -1.5
      vertex -0.335938 70.2903 1.5
      vertex 1.37016 71.1119 1.5
    endloop
  endfacet
  facet normal -0.433878 0.900972 0
    outer loop
      vertex -0.335938 70.2903 1.5
      vertex 1.37016 71.1119 -1.5
      vertex -0.335938 70.2903 -1.5
    endloop
  endfacet
  facet normal -0.781826 0.623497 0
    outer loop
      vertex -1.11636 69.3117 -1.5
      vertex -0.335938 70.2903 1.5
      vertex -0.335938 70.2903 -1.5
    endloop
  endfacet
  facet normal -0.781826 0.623497 0
    outer loop
      vertex -0.335938 70.2903 1.5
      vertex -1.11636 69.3117 -1.5
      vertex -1.11636 69.3117 1.5
    endloop
  endfacet
  facet normal 0 1 -0
    outer loop
      vertex -1.11636 69.3117 -1.5
      vertex -5.55006 69.3117 1.5
      vertex -1.11636 69.3117 1.5
    endloop
  endfacet
  facet normal 0 1 0
    outer loop
      vertex -5.55006 69.3117 1.5
      vertex -1.11636 69.3117 -1.5
      vertex -5.55006 69.3117 -1.5
    endloop
  endfacet
  facet normal 0.536363 0.843988 -0
    outer loop
      vertex -5.55006 69.3117 -1.5
      vertex -9.98744 72.1317 1.5
      vertex -5.55006 69.3117 1.5
    endloop
  endfacet
  facet normal 0.536363 0.843988 0
    outer loop
      vertex -9.98744 72.1317 1.5
      vertex -5.55006 69.3117 -1.5
      vertex -9.98744 72.1317 -1.5
    endloop
  endfacet
  facet normal 0 1 -0
    outer loop
      vertex -9.98744 72.1317 -1.5
      vertex -26.5565 72.1317 1.5
      vertex -9.98744 72.1317 1.5
    endloop
  endfacet
  facet normal 0 1 0
    outer loop
      vertex -26.5565 72.1317 1.5
      vertex -9.98744 72.1317 -1.5
      vertex -26.5565 72.1317 -1.5
    endloop
  endfacet
  facet normal -0.877396 0.479767 0
    outer loop
      vertex -28.0985 69.3117 -1.5
      vertex -26.5565 72.1317 1.5
      vertex -26.5565 72.1317 -1.5
    endloop
  endfacet
  facet normal -0.877396 0.479767 0
    outer loop
      vertex -26.5565 72.1317 1.5
      vertex -28.0985 69.3117 -1.5
      vertex -28.0985 69.3117 1.5
    endloop
  endfacet
  facet normal 0 1 -0
    outer loop
      vertex -28.0985 69.3117 -1.5
      vertex -61.7146 69.3117 1.5
      vertex -28.0985 69.3117 1.5
    endloop
  endfacet
  facet normal 0 1 0
    outer loop
      vertex -61.7146 69.3117 1.5
      vertex -28.0985 69.3117 -1.5
      vertex -61.7146 69.3117 -1.5
    endloop
  endfacet
  facet normal -0.678114 0.734956 0
    outer loop
      vertex -61.7146 69.3117 -1.5
      vertex -67.9209 63.5854 1.5
      vertex -61.7146 69.3117 1.5
    endloop
  endfacet
  facet normal -0.678114 0.734956 0
    outer loop
      vertex -67.9209 63.5854 1.5
      vertex -61.7146 69.3117 -1.5
      vertex -67.9209 63.5854 -1.5
    endloop
  endfacet
  facet normal -0.707107 0.707107 0
    outer loop
      vertex -78.9209 52.5854 -1.5
      vertex -67.9209 63.5854 1.5
      vertex -67.9209 63.5854 -1.5
    endloop
  endfacet
  facet normal -0.707107 0.707107 0
    outer loop
      vertex -67.9209 63.5854 1.5
      vertex -78.9209 52.5854 -1.5
      vertex -78.9209 52.5854 1.5
    endloop
  endfacet
  facet normal -0.953947 0.299976 0
    outer loop
      vertex -80.1215 48.7674 -1.5
      vertex -78.9209 52.5854 1.5
      vertex -78.9209 52.5854 -1.5
    endloop
  endfacet
  facet normal -0.953947 0.299976 0
    outer loop
      vertex -78.9209 52.5854 1.5
      vertex -80.1215 48.7674 -1.5
      vertex -80.1215 48.7674 1.5
    endloop
  endfacet
  facet normal 0.434083 0.900873 -0
    outer loop
      vertex -80.1215 48.7674 -1.5
      vertex -80.3749 48.8895 1.5
      vertex -80.1215 48.7674 1.5
    endloop
  endfacet
  facet normal 0.434083 0.900873 0
    outer loop
      vertex -80.3749 48.8895 1.5
      vertex -80.1215 48.7674 -1.5
      vertex -80.3749 48.8895 -1.5
    endloop
  endfacet
  facet normal 0 1 -0
    outer loop
      vertex -80.3749 48.8895 -1.5
      vertex -82.2686 48.8895 1.5
      vertex -80.3749 48.8895 1.5
    endloop
  endfacet
  facet normal 0 1 0
    outer loop
      vertex -82.2686 48.8895 1.5
      vertex -80.3749 48.8895 -1.5
      vertex -82.2686 48.8895 -1.5
    endloop
  endfacet
  facet normal -0.433878 0.900972 0
    outer loop
      vertex -82.2686 48.8895 -1.5
      vertex -83.9747 48.0679 1.5
      vertex -82.2686 48.8895 1.5
    endloop
  endfacet
  facet normal -0.433878 0.900972 0
    outer loop
      vertex -83.9747 48.0679 1.5
      vertex -82.2686 48.8895 -1.5
      vertex -83.9747 48.0679 -1.5
    endloop
  endfacet
  facet normal -0.781842 0.623477 0
    outer loop
      vertex -85.1554 46.5873 -1.5
      vertex -83.9747 48.0679 1.5
      vertex -83.9747 48.0679 -1.5
    endloop
  endfacet
  facet normal -0.781842 0.623477 0
    outer loop
      vertex -83.9747 48.0679 1.5
      vertex -85.1554 46.5873 -1.5
      vertex -85.1554 46.5873 1.5
    endloop
  endfacet
  facet normal -0.974923 0.222541 0
    outer loop
      vertex -85.5768 44.7412 -1.5
      vertex -85.1554 46.5873 1.5
      vertex -85.1554 46.5873 -1.5
    endloop
  endfacet
  facet normal -0.974923 0.222541 0
    outer loop
      vertex -85.1554 46.5873 1.5
      vertex -85.5768 44.7412 -1.5
      vertex -85.5768 44.7412 1.5
    endloop
  endfacet
  facet normal -0.974926 -0.222529 0
    outer loop
      vertex -85.1554 42.895 -1.5
      vertex -85.5768 44.7412 1.5
      vertex -85.5768 44.7412 -1.5
    endloop
  endfacet
  facet normal -0.974926 -0.222529 0
    outer loop
      vertex -85.5768 44.7412 1.5
      vertex -85.1554 42.895 -1.5
      vertex -85.1554 42.895 1.5
    endloop
  endfacet
  facet normal -0.781821 -0.623503 0
    outer loop
      vertex -83.9747 41.4145 -1.5
      vertex -85.1554 42.895 1.5
      vertex -85.1554 42.895 -1.5
    endloop
  endfacet
  facet normal -0.781821 -0.623503 0
    outer loop
      vertex -85.1554 42.895 1.5
      vertex -83.9747 41.4145 -1.5
      vertex -83.9747 41.4145 1.5
    endloop
  endfacet
  facet normal -0.43389 -0.900966 0
    outer loop
      vertex -83.9747 41.4145 -1.5
      vertex -82.6362 40.7699 1.5
      vertex -83.9747 41.4145 1.5
    endloop
  endfacet
  facet normal -0.43389 -0.900966 -0
    outer loop
      vertex -82.6362 40.7699 1.5
      vertex -83.9747 41.4145 -1.5
      vertex -82.6362 40.7699 -1.5
    endloop
  endfacet
  facet normal -0.95395 0.299965 0
    outer loop
      vertex -83.8226 36.9969 -1.5
      vertex -82.6362 40.7699 1.5
      vertex -82.6362 40.7699 -1.5
    endloop
  endfacet
  facet normal -0.95395 0.299965 0
    outer loop
      vertex -82.6362 40.7699 1.5
      vertex -83.8226 36.9969 -1.5
      vertex -83.8226 36.9969 1.5
    endloop
  endfacet
  facet normal -0.975483 0.220076 0
    outer loop
      vertex -84.9718 31.9031 -1.5
      vertex -83.8226 36.9969 1.5
      vertex -83.8226 36.9969 -1.5
    endloop
  endfacet
  facet normal -0.975483 0.220076 0
    outer loop
      vertex -83.8226 36.9969 1.5
      vertex -84.9718 31.9031 -1.5
      vertex -84.9718 31.9031 1.5
    endloop
  endfacet
  facet normal -0.989519 0.144404 0
    outer loop
      vertex -87.5091 14.5164 -1.5
      vertex -84.9718 31.9031 1.5
      vertex -84.9718 31.9031 -1.5
    endloop
  endfacet
  facet normal -0.989519 0.144404 0
    outer loop
      vertex -84.9718 31.9031 1.5
      vertex -87.5091 14.5164 -1.5
      vertex -87.5091 14.5164 1.5
    endloop
  endfacet
  facet normal -0.997439 0.071527 0
    outer loop
      vertex -87.9011 9.04999 -1.5
      vertex -87.5091 14.5164 1.5
      vertex -87.5091 14.5164 -1.5
    endloop
  endfacet
  facet normal -0.997439 0.071527 0
    outer loop
      vertex -87.5091 14.5164 1.5
      vertex -87.9011 9.04999 -1.5
      vertex -87.9011 9.04999 1.5
    endloop
  endfacet
  facet normal -1 0 0
    outer loop
      vertex -87.9011 -9.04999 -1.5
      vertex -87.9011 9.04999 1.5
      vertex -87.9011 9.04999 -1.5
    endloop
  endfacet
  facet normal -1 -0 0
    outer loop
      vertex -87.9011 9.04999 1.5
      vertex -87.9011 -9.04999 -1.5
      vertex -87.9011 -9.04999 1.5
    endloop
  endfacet
  facet normal -0.997439 -0.071527 0
    outer loop
      vertex -87.5091 -14.5164 -1.5
      vertex -87.9011 -9.04999 1.5
      vertex -87.9011 -9.04999 -1.5
    endloop
  endfacet
  facet normal -0.997439 -0.071527 0
    outer loop
      vertex -87.9011 -9.04999 1.5
      vertex -87.5091 -14.5164 -1.5
      vertex -87.5091 -14.5164 1.5
    endloop
  endfacet
  facet normal -0.989519 -0.144402 0
    outer loop
      vertex -85.5532 -27.9193 -1.5
      vertex -87.5091 -14.5164 1.5
      vertex -87.5091 -14.5164 -1.5
    endloop
  endfacet
  facet normal -0.989519 -0.144402 0
    outer loop
      vertex -87.5091 -14.5164 1.5
      vertex -85.5532 -27.9193 -1.5
      vertex -85.5532 -27.9193 1.5
    endloop
  endfacet
  facet normal 0 1 -0
    outer loop
      vertex -85.5532 -27.9193 -1.5
      vertex -85.5609 -27.9193 1.5
      vertex -85.5532 -27.9193 1.5
    endloop
  endfacet
  facet normal 0 1 0
    outer loop
      vertex -85.5609 -27.9193 1.5
      vertex -85.5532 -27.9193 -1.5
      vertex -85.5609 -27.9193 -1.5
    endloop
  endfacet
  facet normal -0.433878 0.900972 0
    outer loop
      vertex -85.5609 -27.9193 -1.5
      vertex -87.267 -28.7409 1.5
      vertex -85.5609 -27.9193 1.5
    endloop
  endfacet
  facet normal -0.433878 0.900972 0
    outer loop
      vertex -87.267 -28.7409 1.5
      vertex -85.5609 -27.9193 -1.5
      vertex -87.267 -28.7409 -1.5
    endloop
  endfacet
  facet normal -0.781821 0.623503 0
    outer loop
      vertex -88.4477 -30.2214 -1.5
      vertex -87.267 -28.7409 1.5
      vertex -87.267 -28.7409 -1.5
    endloop
  endfacet
  facet normal -0.781821 0.623503 0
    outer loop
      vertex -87.267 -28.7409 1.5
      vertex -88.4477 -30.2214 -1.5
      vertex -88.4477 -30.2214 1.5
    endloop
  endfacet
  facet normal -0.974926 0.222529 0
    outer loop
      vertex -88.8691 -32.0676 -1.5
      vertex -88.4477 -30.2214 1.5
      vertex -88.4477 -30.2214 -1.5
    endloop
  endfacet
  facet normal -0.974926 0.222529 0
    outer loop
      vertex -88.4477 -30.2214 1.5
      vertex -88.8691 -32.0676 -1.5
      vertex -88.8691 -32.0676 1.5
    endloop
  endfacet
  facet normal -0.974937 -0.222481 0
    outer loop
      vertex -88.6388 -33.0768 -1.5
      vertex -88.8691 -32.0676 1.5
      vertex -88.8691 -32.0676 -1.5
    endloop
  endfacet
  facet normal -0.974937 -0.222481 0
    outer loop
      vertex -88.8691 -32.0676 1.5
      vertex -88.6388 -33.0768 -1.5
      vertex -88.6388 -33.0768 1.5
    endloop
  endfacet
  facet normal -0.328118 0.944637 0
    outer loop
      vertex -88.6388 -33.0768 -1.5
      vertex -102.771 -37.9856 1.5
      vertex -88.6388 -33.0768 1.5
    endloop
  endfacet
  facet normal -0.328118 0.944637 0
    outer loop
      vertex -102.771 -37.9856 1.5
      vertex -88.6388 -33.0768 -1.5
      vertex -102.771 -37.9856 -1.5
    endloop
  endfacet
  facet normal -0.642817 0.76602 0
    outer loop
      vertex -102.771 -37.9856 -1.5
      vertex -112.106 -45.8192 1.5
      vertex -102.771 -37.9856 1.5
    endloop
  endfacet
  facet normal -0.642817 0.76602 0
    outer loop
      vertex -112.106 -45.8192 1.5
      vertex -102.771 -37.9856 -1.5
      vertex -112.106 -45.8192 -1.5
    endloop
  endfacet
  facet normal -0.773205 0.634156 0
    outer loop
      vertex -113.362 -47.3506 -1.5
      vertex -112.106 -45.8192 1.5
      vertex -112.106 -45.8192 -1.5
    endloop
  endfacet
  facet normal -0.773205 0.634156 0
    outer loop
      vertex -112.106 -45.8192 1.5
      vertex -113.362 -47.3506 -1.5
      vertex -113.362 -47.3506 1.5
    endloop
  endfacet
  facet normal -0.999294 -0.037558 0
    outer loop
      vertex -112.914 -59.2704 -1.5
      vertex -113.362 -47.3506 1.5
      vertex -113.362 -47.3506 -1.5
    endloop
  endfacet
  facet normal -0.999294 -0.037558 0
    outer loop
      vertex -113.362 -47.3506 1.5
      vertex -112.914 -59.2704 -1.5
      vertex -112.914 -59.2704 1.5
    endloop
  endfacet
  facet normal -0.913529 -0.406773 0
    outer loop
      vertex -112.307 -60.6336 -1.5
      vertex -112.914 -59.2704 1.5
      vertex -112.914 -59.2704 -1.5
    endloop
  endfacet
  facet normal -0.913529 -0.406773 0
    outer loop
      vertex -112.914 -59.2704 1.5
      vertex -112.307 -60.6336 -1.5
      vertex -112.307 -60.6336 1.5
    endloop
  endfacet
  facet normal -0.788017 0.615653 0
    outer loop
      vertex -117.509 -67.292 -1.5
      vertex -112.307 -60.6336 1.5
      vertex -112.307 -60.6336 -1.5
    endloop
  endfacet
  facet normal -0.788017 0.615653 0
    outer loop
      vertex -112.307 -60.6336 1.5
      vertex -117.509 -67.292 -1.5
      vertex -117.509 -67.292 1.5
    endloop
  endfacet
  facet normal -0.923593 0.383375 0
    outer loop
      vertex -118.464 -69.5927 -1.5
      vertex -117.509 -67.292 1.5
      vertex -117.509 -67.292 -1.5
    endloop
  endfacet
  facet normal -0.923593 0.383375 0
    outer loop
      vertex -117.509 -67.292 1.5
      vertex -118.464 -69.5927 -1.5
      vertex -118.464 -69.5927 1.5
    endloop
  endfacet
  facet normal -0.999358 -0.0358313 0
    outer loop
      vertex -118.111 -79.4381 -1.5
      vertex -118.464 -69.5927 1.5
      vertex -118.464 -69.5927 -1.5
    endloop
  endfacet
  facet normal -0.999358 -0.0358313 0
    outer loop
      vertex -118.464 -69.5927 1.5
      vertex -118.111 -79.4381 -1.5
      vertex -118.111 -79.4381 1.5
    endloop
  endfacet
  facet normal -0.980761 -0.19521 0
    outer loop
      vertex -117.34 -83.3117 -1.5
      vertex -118.111 -79.4381 1.5
      vertex -118.111 -79.4381 -1.5
    endloop
  endfacet
  facet normal -0.980761 -0.19521 0
    outer loop
      vertex -118.111 -79.4381 1.5
      vertex -117.34 -83.3117 -1.5
      vertex -117.34 -83.3117 1.5
    endloop
  endfacet
  facet normal -0.646726 -0.762723 0
    outer loop
      vertex -117.34 -83.3117 -1.5
      vertex -103.633 -94.9341 1.5
      vertex -117.34 -83.3117 1.5
    endloop
  endfacet
  facet normal -0.646726 -0.762723 -0
    outer loop
      vertex -103.633 -94.9341 1.5
      vertex -117.34 -83.3117 -1.5
      vertex -103.633 -94.9341 -1.5
    endloop
  endfacet
  facet normal -0.201469 -0.979495 0
    outer loop
      vertex -103.633 -94.9341 -1.5
      vertex -99.0746 -95.8717 1.5
      vertex -103.633 -94.9341 1.5
    endloop
  endfacet
  facet normal -0.201469 -0.979495 -0
    outer loop
      vertex -99.0746 -95.8717 1.5
      vertex -103.633 -94.9341 -1.5
      vertex -99.0746 -95.8717 -1.5
    endloop
  endfacet
  facet normal 0.096034 -0.995378 0
    outer loop
      vertex -99.0746 -95.8717 -1.5
      vertex -97.5945 -95.7289 1.5
      vertex -99.0746 -95.8717 1.5
    endloop
  endfacet
  facet normal 0.096034 -0.995378 0
    outer loop
      vertex -97.5945 -95.7289 1.5
      vertex -99.0746 -95.8717 -1.5
      vertex -97.5945 -95.7289 -1.5
    endloop
  endfacet
  facet normal -0.705581 -0.708629 0
    outer loop
      vertex -97.5945 -95.7289 -1.5
      vertex -86.0156 -107.258 1.5
      vertex -97.5945 -95.7289 1.5
    endloop
  endfacet
  facet normal -0.705581 -0.708629 -0
    outer loop
      vertex -86.0156 -107.258 1.5
      vertex -97.5945 -95.7289 -1.5
      vertex -86.0156 -107.258 -1.5
    endloop
  endfacet
  facet normal -0.451842 -0.892098 0
    outer loop
      vertex -86.0156 -107.258 -1.5
      vertex -83.7135 -108.424 1.5
      vertex -86.0156 -107.258 1.5
    endloop
  endfacet
  facet normal -0.451842 -0.892098 -0
    outer loop
      vertex -83.7135 -108.424 1.5
      vertex -86.0156 -107.258 -1.5
      vertex -83.7135 -108.424 -1.5
    endloop
  endfacet
  facet normal -0.070375 -0.997521 0
    outer loop
      vertex -83.7135 -108.424 -1.5
      vertex -74.4293 -109.079 1.5
      vertex -83.7135 -108.424 1.5
    endloop
  endfacet
  facet normal -0.070375 -0.997521 -0
    outer loop
      vertex -74.4293 -109.079 1.5
      vertex -83.7135 -108.424 -1.5
      vertex -74.4293 -109.079 -1.5
    endloop
  endfacet
  facet normal -0.00672548 -0.999977 0
    outer loop
      vertex -74.4293 -109.079 -1.5
      vertex -69.5227 -109.112 1.5
      vertex -74.4293 -109.079 1.5
    endloop
  endfacet
  facet normal -0.00672548 -0.999977 -0
    outer loop
      vertex -69.5227 -109.112 1.5
      vertex -74.4293 -109.079 -1.5
      vertex -69.5227 -109.112 -1.5
    endloop
  endfacet
  facet normal 0.441893 -0.897068 0
    outer loop
      vertex -69.5227 -109.112 -1.5
      vertex -67.6652 -108.197 1.5
      vertex -69.5227 -109.112 1.5
    endloop
  endfacet
  facet normal 0.441893 -0.897068 0
    outer loop
      vertex -67.6652 -108.197 1.5
      vertex -69.5227 -109.112 -1.5
      vertex -67.6652 -108.197 -1.5
    endloop
  endfacet
  facet normal 0.809025 -0.587774 0
    outer loop
      vertex -67.6652 -108.197 1.5
      vertex -58.7919 -95.9836 -1.5
      vertex -58.7919 -95.9836 1.5
    endloop
  endfacet
  facet normal 0.809025 -0.587774 0
    outer loop
      vertex -58.7919 -95.9836 -1.5
      vertex -67.6652 -108.197 1.5
      vertex -67.6652 -108.197 -1.5
    endloop
  endfacet
endsolid OpenSCAD_Model
